<svg version="1.1" xmlns="http://www.w3.org/2000/svg" xmlns:xlink="http://www.w3.org/1999/xlink" x="0px" y="0px"
	 width="28px" height="28px" viewBox="0 0 28 28" enable-background="new 0 0 28 28" xml:space="preserve">
<path d="M24.6,7.72c-1.988-4.725-5.644-5.413-10.053-5.417c-1.579,0-2.586-0.035-3.591,0.007c-1.848,0.08-2.96,1.077-2.962,2.918
	C7.993,7.074,9.125,8.083,10.96,8.142c1.872,0.061,3.75-0.035,5.622,0.028c1.725,0.058,2.765,1.036,2.772,2.754
	c0.009,1.743-1.035,2.727-2.781,2.785c-1.9,0.063-3.806-0.048-5.705,0.034c-1.819,0.081-2.904,1.133-2.877,2.954
	c0.025,1.805,1.129,2.808,2.93,2.868c1.899,0.063,3.803,0.016,5.703,0.013C22.731,19.57,26.968,13.347,24.6,7.72z"/>
<path d="M5.207,8.067c-1.937,0-2.908,1.004-2.929,2.826c-0.022,1.805,1.045,2.91,2.835,2.943c1.814,0.033,2.929-1.048,2.958-2.868
	C8.096,9.157,7.074,8.067,5.207,8.067z"/>
<g>
	<path d="M8.7,25.503H7.93V25.39c-0.183,0.025-0.366,0.052-0.548,0.077c-0.239,0.033-0.421,0.049-0.545,0.049
		c-0.293,0-0.439-0.133-0.439-0.399v-1.183c0-0.271,0.151-0.406,0.453-0.406h1.086v-0.753h-0.77v0.468H6.439v-0.614
		c0-0.271,0.151-0.406,0.454-0.406h1.36c0.298,0,0.447,0.136,0.447,0.406V25.503z M7.937,24.912v-0.881h-0.77v0.906L7.937,24.912z"
		/>
	<path d="M12.061,24.545c0,0.299-0.096,0.533-0.289,0.703c-0.192,0.17-0.451,0.255-0.777,0.255H9.319v-5.084h1.677
		c0.326,0,0.585,0.086,0.777,0.258c0.192,0.173,0.289,0.408,0.289,0.707V24.545z M11.235,24.418v-2.921
		c0-0.283-0.161-0.426-0.482-0.426h-0.611v3.778h0.59C11.067,24.85,11.235,24.706,11.235,24.418z"/>
	<path d="M15.439,24.545c0,0.299-0.096,0.533-0.288,0.703s-0.451,0.255-0.777,0.255h-1.677v-5.084h1.677
		c0.326,0,0.584,0.086,0.777,0.258c0.192,0.173,0.288,0.408,0.288,0.707V24.545z M14.613,24.418v-2.921
		c0-0.283-0.16-0.426-0.481-0.426h-0.611v3.778h0.59C14.446,24.85,14.613,24.706,14.613,24.418z"/>
	<path d="M18.863,25.503h-0.815l-0.165-0.965h-1.03l-0.165,0.965h-0.813V25.49l1.065-5.078h0.865L18.863,25.503z M17.767,23.885
		l-0.4-2.293l-0.404,2.293H17.767z"/>
	<path d="M22.099,25.038c0,0.31-0.167,0.465-0.499,0.465h-1.786c-0.326,0-0.489-0.155-0.489-0.465v-4.151
		c0-0.313,0.163-0.468,0.489-0.468H21.6c0.332,0,0.499,0.155,0.499,0.468V25.038z M21.275,24.85v-3.778h-1.128v3.778H21.275z"/>
</g>
</svg>
