<?xml version="1.0" encoding="utf-8"?>
<!-- Generator: Adobe Illustrator 15.0.0, SVG Export Plug-In . SVG Version: 6.00 Build 0)  -->
<!DOCTYPE svg PUBLIC "-//W3C//DTD SVG 1.1//EN" "http://www.w3.org/Graphics/SVG/1.1/DTD/svg11.dtd">
<svg version="1.1" id="Слой_1" xmlns="http://www.w3.org/2000/svg" xmlns:xlink="http://www.w3.org/1999/xlink" x="0px" y="0px"
	 width="28px" height="28px" viewBox="0 0 28 28" enable-background="new 0 0 28 28" xml:space="preserve">
<path d="M25.803,7.033c-2.209-5.25-6.271-6.014-11.17-6.018c-1.754,0-2.873-0.039-3.99,0.008C8.59,1.112,7.354,2.22,7.352,4.265
	c-0.001,2.051,1.257,3.172,3.296,3.238c2.08,0.068,4.167-0.039,6.247,0.031c1.916,0.064,3.071,1.151,3.08,3.061
	c0.01,1.937-1.15,3.029-3.09,3.094c-2.111,0.07-4.229-0.053-6.339,0.037c-2.021,0.09-3.226,1.258-3.197,3.283
	c0.028,2.005,1.255,3.119,3.255,3.187c2.111,0.07,4.225,0.018,6.337,0.015C23.727,20.201,28.434,13.286,25.803,7.033z"/>
<path d="M4.255,7.419c-2.152,0-3.231,1.116-3.255,3.14c-0.024,2.005,1.161,3.233,3.151,3.27c2.015,0.037,3.254-1.164,3.286-3.186
	C7.466,8.631,6.33,7.419,4.255,7.419z"/>
<g>
	<path d="M8.137,26.793H7.281v-0.126c-0.203,0.028-0.406,0.058-0.609,0.086c-0.266,0.036-0.467,0.055-0.605,0.055
		c-0.326,0-0.488-0.148-0.488-0.444V25.05c0-0.301,0.168-0.451,0.504-0.451h1.207v-0.838H6.434v0.52H5.625v-0.682
		c0-0.301,0.168-0.451,0.504-0.451h1.512c0.331,0,0.496,0.15,0.496,0.451V26.793z M7.289,26.136v-0.978H6.434v1.007L7.289,26.136z"
		/>
	<path d="M11.871,25.729c0,0.332-0.107,0.592-0.32,0.781c-0.213,0.188-0.501,0.283-0.863,0.283H8.824v-5.649h1.863
		c0.362,0,0.65,0.096,0.863,0.287s0.32,0.453,0.32,0.785V25.729z M10.953,25.587v-3.245c0-0.314-0.178-0.473-0.535-0.473h-0.68
		v4.198h0.656C10.767,26.067,10.953,25.907,10.953,25.587z"/>
	<path d="M15.625,25.729c0,0.332-0.106,0.592-0.32,0.781c-0.214,0.188-0.501,0.283-0.863,0.283h-1.863v-5.649h1.863
		c0.362,0,0.649,0.096,0.863,0.287s0.32,0.453,0.32,0.785V25.729z M14.707,25.587v-3.245c0-0.314-0.179-0.473-0.535-0.473h-0.68
		v4.198h0.656C14.521,26.067,14.707,25.907,14.707,25.587z"/>
	<path d="M19.43,26.793h-0.906l-0.184-1.072h-1.145l-0.184,1.072h-0.902v-0.015l1.184-5.642h0.961L19.43,26.793z M18.211,24.995
		l-0.445-2.548l-0.449,2.548H18.211z"/>
	<path d="M23.023,26.276c0,0.345-0.185,0.517-0.555,0.517h-1.984c-0.362,0-0.543-0.172-0.543-0.517v-4.612
		c0-0.347,0.181-0.521,0.543-0.521h1.984c0.37,0,0.555,0.174,0.555,0.521V26.276z M22.109,26.067v-4.198h-1.254v4.198H22.109z"/>
</g>
</svg>
