<svg width="16" height="16" viewBox="0 0 16 16" fill="none" xmlns="http://www.w3.org/2000/svg">
<path d="M2.91406 8.64062C2.78906 8.5 2.78906 8.36719 2.91406 8.24219L7.83594 3.34375C7.96094 3.20312 8.08594 3.20312 8.21094 3.34375L13.1328 8.24219C13.2578 8.36719 13.2578 8.5 13.1328 8.64062L12.6641 9.10938C12.5391 9.23438 12.4062 9.23438 12.2656 9.10938L8.63281 5.47656V13.4688C8.63281 13.6562 8.53906 13.75 8.35156 13.75H7.69531C7.50781 13.75 7.41406 13.6562 7.41406 13.4688V5.47656L3.78125 9.10938C3.64062 9.23438 3.50781 9.23438 3.38281 9.10938L2.91406 8.64062Z" fill="#000"/>
</svg>
