<svg version="1.0" xmlns="http://www.w3.org/2000/svg"  x="0px" y="0px" fill="#0D0F0F" width="40px" height="40px" viewBox="0 0 40 40" enable-background="new 0 0 40 40" xml:space="preserve">
<g>
	<path  d="M35.926,14.426c-2.754-6.489-7.822-7.432-13.931-7.439c-2.185,0-3.585-0.048-4.977,0.011
		c-2.558,0.11-4.104,1.479-4.105,4.005c-0.003,2.528,1.568,3.92,4.111,4.006c2.595,0.084,5.197-0.048,7.793,0.038
		c2.389,0.081,3.832,1.423,3.841,3.783c0.013,2.393-1.435,3.746-3.853,3.825c-2.634,0.085-5.275-0.066-7.906,0.046
		c-2.521,0.107-4.024,1.554-3.989,4.059c0.036,2.474,1.566,3.854,4.062,3.936c2.634,0.085,5.271,0.021,7.907,0.02
		C33.337,30.701,39.208,22.158,35.926,14.426z"/>
	<path d="M9.049,14.903c-2.681,0-4.031,1.378-4.062,3.88c-0.03,2.481,1.449,3.995,3.933,4.039
		c2.513,0.048,4.059-1.438,4.098-3.936C13.057,16.387,11.636,14.903,9.049,14.903z"/>
	<path d="M18.472,32.345c-1.044,0-2.092-0.009-3.131-0.044c-2.581-0.083-4.07-1.535-4.109-3.983
		c-0.035-2.498,1.435-3.997,4.035-4.106c1.39-0.062,2.796-0.049,4.16-0.033c1.23,0.011,2.5,0.024,3.749-0.016
		c2.433-0.079,3.816-1.454,3.806-3.772c-0.011-2.294-1.391-3.654-3.795-3.734c-1.304-0.043-2.631-0.032-3.915-0.02
		c-1.285,0.012-2.581,0.024-3.872-0.019c-2.644-0.087-4.161-1.563-4.159-4.052c0.002-2.49,1.478-3.942,4.153-4.057
		c0.923-0.039,1.84-0.032,3.001-0.021c0.581,0,1.238,0.01,1.978,0.01c6.676,0.007,11.342,1.258,13.977,7.469
		c1.543,3.63,1.167,7.615-1.028,10.939c-2.232,3.382-6.014,5.417-10.065,5.417c-0.773,0-1.56,0.004-2.319,0.011
		C20.12,32.341,19.298,32.345,18.472,32.345z M17.613,24.264c-0.78,0-1.565,0.011-2.341,0.044c-2.541,0.109-3.972,1.571-3.942,4.008
		c0.034,2.388,1.496,3.806,4.013,3.887c1.86,0.06,3.753,0.046,5.585,0.033c0.76-0.007,1.547-0.014,2.321-0.014
		c4.019,0,7.767-2.017,9.981-5.37c2.178-3.296,2.549-7.246,1.022-10.847l0,0C31.635,9.848,27,8.604,20.367,8.596
		c-0.739,0-1.398-0.005-1.979-0.011c-1.16-0.009-2.077-0.017-2.996,0.022c-2.619,0.112-4.056,1.517-4.058,3.957
		c-0.002,2.44,1.479,3.872,4.063,3.953c1.291,0.042,2.604,0.031,3.872,0.019c1.287-0.012,2.614-0.024,3.922,0.02
		c2.461,0.082,3.878,1.479,3.889,3.832c0.014,2.382-1.41,3.792-3.902,3.871c-1.25,0.042-2.522,0.028-3.753,0.016
		C18.829,24.272,18.222,24.264,17.613,24.264z"/>
	<path d="M7.402,24.435H7.29c-2.522-0.048-4.01-1.575-3.979-4.092c0.031-2.571,1.451-3.93,4.109-3.93
		c1.291,0,2.303,0.361,3.003,1.072c0.683,0.694,1.034,1.718,1.017,2.962s-0.41,2.256-1.13,2.951
		C9.608,24.076,8.604,24.435,7.402,24.435z M7.419,16.51c-2.594,0-3.98,1.326-4.01,3.832c-0.029,2.456,1.422,3.948,3.883,3.992
		c1.226,0.021,2.244-0.328,2.949-1.009c0.705-0.679,1.08-1.672,1.099-2.878c0.02-1.207-0.323-2.216-0.992-2.889
		C9.67,16.862,8.684,16.51,7.419,16.51z"/>
	<path d="M17.116,33.811c-1.042,0-2.092-0.011-3.131-0.046c-2.582-0.084-4.071-1.534-4.109-3.981
		c-0.038-2.501,1.434-3.997,4.035-4.109c1.39-0.059,2.795-0.044,4.161-0.03c1.228,0.013,2.5,0.024,3.748-0.018
		c2.43-0.079,3.818-1.455,3.806-3.771c-0.012-2.294-1.389-3.655-3.795-3.734c-1.305-0.044-2.632-0.032-3.917-0.02
		c-1.285,0.012-2.581,0.023-3.872-0.019c-2.646-0.087-4.162-1.563-4.161-4.054c0.001-2.489,1.479-3.94,4.154-4.055
		c0.922-0.04,1.839-0.032,3-0.022c0.58,0.005,1.238,0.011,1.979,0.011c6.676,0.007,11.341,1.259,13.978,7.47l0,0
		c1.54,3.629,1.167,7.618-1.03,10.94c-2.232,3.382-6.012,5.417-10.065,5.414c-0.771,0-1.557,0.007-2.316,0.014
		C18.766,33.804,17.943,33.811,17.116,33.811z M16.259,25.731c-0.781,0-1.566,0.009-2.344,0.044
		c-2.539,0.109-3.971,1.568-3.94,4.006c0.034,2.384,1.497,3.803,4.012,3.887c1.862,0.062,3.756,0.046,5.589,0.03
		c0.759-0.004,1.544-0.011,2.317-0.013c4.018,0.004,7.771-2.018,9.981-5.375c2.18-3.293,2.551-7.245,1.023-10.844l0,0
		c-2.614-6.161-7.253-7.403-13.888-7.409c-0.74,0-1.398-0.005-1.979-0.011c-1.16-0.01-2.076-0.018-2.996,0.022
		c-2.613,0.111-4.055,1.517-4.058,3.957c-0.003,2.438,1.48,3.871,4.064,3.954c1.291,0.042,2.602,0.03,3.871,0.019
		c1.286-0.012,2.615-0.024,3.92,0.02c2.461,0.081,3.881,1.479,3.892,3.832c0.011,2.382-1.411,3.79-3.902,3.872
		c-1.249,0.041-2.522,0.028-3.751,0.015C17.473,25.735,16.868,25.731,16.259,25.731z"/>
	<path d="M6.046,25.898H5.934c-2.522-0.044-4.011-1.576-3.981-4.092c0.032-2.569,1.452-3.929,4.111-3.929
		c1.291,0,2.301,0.36,3.001,1.071c0.685,0.695,1.036,1.72,1.018,2.963c-0.02,1.242-0.41,2.255-1.129,2.949
		C8.251,25.54,7.247,25.898,6.046,25.898z M6.063,17.976c-2.594,0-3.98,1.325-4.011,3.831c-0.03,2.455,1.422,3.946,3.882,3.99
		c1.225,0.022,2.245-0.325,2.95-1.006c0.706-0.684,1.079-1.675,1.098-2.879c0.019-1.207-0.322-2.217-0.992-2.892
		C8.313,18.326,7.327,17.976,6.063,17.976z"/>
</g>
</svg>
