<svg  version="1.1" xmlns="http://www.w3.org/2000/svg" 	 width="28px" height="28px" viewBox="0 1 28 28">
<path d="M25.803,10.418c-2.209-5.25-6.271-6.014-11.17-6.018c-1.754,0-2.873-0.039-3.99,0.008C8.59,4.497,7.354,5.605,7.352,7.65
    c-0.001,2.051,1.257,3.172,3.296,3.238c2.08,0.068,4.166-0.039,6.246,0.031c1.916,0.064,3.072,1.151,3.08,3.061
    c0.011,1.936-1.151,3.029-3.089,3.094c-2.111,0.07-4.229-0.053-6.339,0.038c-2.021,0.089-3.226,1.257-3.197,3.283
    c0.028,2.003,1.255,3.118,3.255,3.185c2.111,0.07,4.225,0.017,6.338,0.015C23.727,23.586,28.434,16.671,25.803,10.418z"/>
<path d="M4.255,10.804c-2.152,0-3.231,1.116-3.255,3.14c-0.024,2.005,1.161,3.233,3.151,3.27c2.015,0.037,3.254-1.164,3.286-3.186
    C7.466,12.016,6.33,10.804,4.255,10.804z"/>
</svg>
