<svg width="136" height="32" viewBox="0 0 136 32" fill="none" xmlns="http://www.w3.org/2000/svg">
<path d="M68 14V4.40234H69.5977V2.80078H72.7969V4.40234H74.3984V2.80078H77.5977V4.40234H79.1992V14H76V6H74.3984V14H72.7969V6H71.1992V14H68ZM87.1953 7.60156V4.40234H83.9961V7.60156H87.1953ZM82.3945 14V12.4023H80.7969V4.40234H82.3945V2.80078H88.7969V4.40234H90.3945V9.20312H83.9961V12.4023H87.1953V10.8008H90.3945V12.4023H88.7969V14H82.3945ZM95.1992 14V12.4023H93.5977V6H92V4.40234H93.5977V1.20312H96.7969V4.40234H101.598V6H96.7969V12.4023H100V14H95.1992ZM109.602 12.4023V7.60156H106.402V12.4023H109.602ZM109.602 12.4023V14H104.801V12.4023H103.203V7.60156H104.801V6H109.602V4.40234H104.801V2.80078H111.203V4.40234H112.801V14H111.203V12.4023H109.602ZM71.1992 30V28.4023H69.5977V22H68V20.4023H69.5977V17.2031H72.7969V20.4023H77.5977V22H72.7969V28.4023H76V30H71.1992ZM80.8008 31.5977V30H85.6016V28.4023H80.8008V26.8008H79.2031V18.8008H82.4023V26.8008H85.6016V18.8008H88.8008V30H87.2031V31.5977H80.8008ZM92.0039 30V28.4023H90.4062V20.4023H92.0039V18.8008H98.4062V20.4023H100.004V23.6016H96.8047V20.4023H93.6055V28.4023H96.8047V25.2031H100.004V28.4023H98.4062V30H92.0039ZM108.008 28.4023V20.4023H104.809V28.4023H108.008ZM103.207 30V28.4023H101.609V20.4023H103.207V18.8008H109.609V20.4023H111.207V28.4023H109.609V30H103.207ZM119.211 28.4023V20.4023H116.012V28.4023H119.211ZM114.41 30V28.4023H112.812V20.4023H114.41V18.8008H120.812V20.4023H122.41V28.4023H120.812V30H114.41ZM124.016 30V18.8008H132.016V20.4023H133.613V30H130.414V20.4023H127.215V30H124.016Z" fill="white" fill-opacity="0.87"/>
<path d="M27.7656 13.2306L18.9463 9.05522V6.65784L27.7656 10.7685V13.2306Z" fill="#82FF05"/>
<path d="M28.082 13.2306L37.0575 9.05522V6.65784L28.082 10.7685V13.2306Z" fill="#82FF05"/>
<path fill-rule="evenodd" clip-rule="evenodd" d="M18.626 9.05527C18.626 9.1606 18.6893 9.25769 18.7913 9.30867L27.6106 13.4841C27.7099 13.5338 27.8308 13.5322 27.9286 13.4802C28.0264 13.4281 28.0864 13.3333 28.0864 13.2306V10.7685C28.0864 10.6594 28.0184 10.5596 27.9107 10.5102L19.0914 6.39954C18.9921 6.35399 18.8737 6.35839 18.7787 6.41105C18.6838 6.46378 18.626 6.55725 18.626 6.65789V9.05527ZM18.9465 9.05527V6.65789L27.7658 10.7685V13.2306L18.9465 9.05527Z" fill="black"/>
<path fill-rule="evenodd" clip-rule="evenodd" d="M37.3783 9.05527C37.3783 9.1606 37.315 9.25769 37.2131 9.30867L28.2375 13.4841C28.1382 13.5338 28.0173 13.5322 27.9195 13.4802C27.8217 13.4281 27.7617 13.3333 27.7617 13.2306V10.7685C27.7617 10.6594 27.8296 10.5596 27.9373 10.5102L36.9129 6.39954C37.0122 6.35399 37.1306 6.35839 37.2256 6.41105C37.3205 6.46378 37.3783 6.55725 37.3783 6.65789V9.05527ZM37.0578 9.05527V6.65789L28.0823 10.7685V13.2306L37.0578 9.05527Z" fill="black"/>
<path fill-rule="evenodd" clip-rule="evenodd" d="M27.8295 2.23733C27.9206 2.19555 28.0283 2.19555 28.1194 2.23733L37.0918 6.34944C37.1995 6.39876 37.2673 6.49864 37.2673 6.60773C37.2673 6.71689 37.1995 6.8167 37.0918 6.86608L28.1194 10.9782C28.0283 11.02 27.9206 11.02 27.8295 10.9782L18.8572 6.86608C18.7495 6.8167 18.6816 6.71689 18.6816 6.60773C18.6816 6.49864 18.7495 6.39876 18.8572 6.34944L27.8295 2.23733ZM19.0022 6.60773L27.9745 10.7198L36.9468 6.60773L27.9745 2.49561L19.0022 6.60773Z" fill="black"/>
<path d="M27.973 2.49579L19.001 6.6079L27.973 10.72L36.9456 6.6079L27.973 2.49579Z" fill="#E0E0E0"/>
<path d="M18.5439 17.4771L9.72461 13.3017V10.9043L18.5439 15.015V17.4771Z" fill="#82FF05"/>
<path d="M18.8604 17.4771L27.8358 13.3017V10.9043L18.8604 15.015V17.4771Z" fill="#82FF05"/>
<path fill-rule="evenodd" clip-rule="evenodd" d="M9.40527 13.3018C9.40527 13.4071 9.4686 13.5042 9.57061 13.5552L18.3898 17.7306C18.4891 17.7803 18.6101 17.7788 18.7079 17.7268C18.8056 17.6747 18.8656 17.5797 18.8656 17.4772V15.0151C18.8656 14.9059 18.7977 14.8061 18.69 14.7567L9.87073 10.6461C9.77136 10.6005 9.65297 10.6049 9.55804 10.6576C9.46312 10.7103 9.40527 10.8038 9.40527 10.9044V13.3018ZM9.72581 13.3018V10.9044L18.5451 15.0151V17.4772L9.72581 13.3018Z" fill="black"/>
<path fill-rule="evenodd" clip-rule="evenodd" d="M28.1566 13.3018C28.1566 13.4071 28.0934 13.5042 27.9914 13.5552L19.0158 17.7306C18.9165 17.7803 18.7956 17.7788 18.6978 17.7268C18.6 17.6747 18.54 17.5797 18.54 17.4772V15.0151C18.54 14.9059 18.6079 14.8061 18.7157 14.7567L27.6912 10.6461C27.7906 10.6005 27.9089 10.6049 28.0039 10.6576C28.0988 10.7103 28.1566 10.8038 28.1566 10.9044V13.3018ZM27.8361 13.3018V10.9044L18.8606 15.0151V17.4772L27.8361 13.3018Z" fill="black"/>
<path fill-rule="evenodd" clip-rule="evenodd" d="M18.6078 6.48376C18.699 6.44198 18.8067 6.44198 18.8978 6.48376L27.8701 10.5959C27.9778 10.6452 28.0456 10.7451 28.0456 10.8542C28.0456 10.9633 27.9778 11.0632 27.8701 11.1126L18.8978 15.2247C18.8067 15.2665 18.699 15.2665 18.6078 15.2247L9.63551 11.1126C9.5278 11.0632 9.45996 10.9633 9.45996 10.8542C9.45996 10.7451 9.5278 10.6452 9.63551 10.5959L18.6078 6.48376ZM9.7805 10.8542L18.7528 14.9663L27.7251 10.8542L18.7528 6.74211L9.7805 10.8542Z" fill="black"/>
<path d="M18.7523 6.74231L9.78027 10.8544L18.7523 14.9665L27.7249 10.8544L18.7523 6.74231Z" fill="#E0E0E0"/>
<path d="M9.36422 21.6537L0.544922 17.4783V15.0809L9.36422 19.1916V21.6537Z" fill="#82FF05"/>
<path d="M9.68066 21.6537L18.6561 17.4783V15.0809L9.68066 19.1916V21.6537Z" fill="#82FF05"/>
<path fill-rule="evenodd" clip-rule="evenodd" d="M0.223633 17.4784C0.223633 17.5838 0.286962 17.6808 0.388969 17.7319L9.2082 21.9072C9.3075 21.9569 9.42846 21.9554 9.52623 21.9033C9.624 21.8513 9.684 21.7564 9.684 21.6538V19.1917C9.684 19.0826 9.61609 18.9827 9.50839 18.9333L0.689089 14.8227C0.589721 14.7772 0.471325 14.7815 0.376401 14.8342C0.281476 14.8869 0.223633 14.9804 0.223633 15.081V17.4784ZM0.544168 17.4784V15.081L9.36346 19.1917V21.6538L0.544168 17.4784Z" fill="black"/>
<path fill-rule="evenodd" clip-rule="evenodd" d="M18.976 17.4784C18.976 17.5838 18.9127 17.6808 18.8107 17.7319L9.83518 21.9072C9.73588 21.9569 9.61491 21.9554 9.51714 21.9033C9.41937 21.8513 9.35938 21.7564 9.35938 21.6538V19.1917C9.35938 19.0826 9.42722 18.9827 9.53499 18.9333L18.5105 14.8227C18.6099 14.7772 18.7283 14.7815 18.8232 14.8342C18.9181 14.8869 18.976 14.9804 18.976 15.081V17.4784ZM18.6554 17.4784V15.081L9.67991 19.1917V21.6538L18.6554 17.4784Z" fill="black"/>
<path fill-rule="evenodd" clip-rule="evenodd" d="M9.42712 10.6604C9.51829 10.6186 9.62599 10.6186 9.7171 10.6604L18.6894 14.7725C18.7971 14.8219 18.865 14.9217 18.865 15.0309C18.865 15.1399 18.7971 15.2398 18.6894 15.2891L9.7171 19.4013C9.62599 19.443 9.51829 19.443 9.42712 19.4013L0.454841 15.2891C0.34714 15.2398 0.279297 15.1399 0.279297 15.0309C0.279297 14.9217 0.34714 14.8219 0.454841 14.7725L9.42712 10.6604ZM0.599832 15.0309L9.57211 19.143L18.5444 15.0309L9.57211 10.9187L0.599832 15.0309Z" fill="black"/>
<path d="M9.57265 10.9189L0.600586 15.031L9.57265 19.1432L18.5452 15.031L9.57265 10.9189Z" fill="#E0E0E0"/>
<path d="M36.8612 17.4771L28.042 13.3017V10.9043L36.8612 15.015V17.4771Z" fill="#82FF05"/>
<path d="M37.1777 17.4771L46.1533 13.3017V10.9043L37.1777 15.015V17.4771Z" fill="#82FF05"/>
<path fill-rule="evenodd" clip-rule="evenodd" d="M27.7207 13.3018C27.7207 13.4071 27.784 13.5042 27.886 13.5552L36.7053 17.7306C36.8045 17.7803 36.9255 17.7788 37.0232 17.7268C37.121 17.6747 37.1811 17.5797 37.1811 17.4772V15.0151C37.1811 14.9059 37.1132 14.8061 37.0054 14.7567L28.1862 10.6461C28.0868 10.6005 27.9684 10.6049 27.8735 10.6576C27.7785 10.7103 27.7207 10.8038 27.7207 10.9044V13.3018ZM28.0412 13.3018V10.9044L36.8605 15.0151V17.4772L28.0412 13.3018Z" fill="black"/>
<path fill-rule="evenodd" clip-rule="evenodd" d="M46.4731 13.3018C46.4731 13.4071 46.4098 13.5042 46.3078 13.5552L37.3322 17.7306C37.2329 17.7803 37.112 17.7788 37.0142 17.7268C36.9164 17.6747 36.8564 17.5797 36.8564 17.4772V15.0151C36.8564 14.9059 36.9244 14.8061 37.0321 14.7567L46.0076 10.6461C46.107 10.6005 46.2254 10.6049 46.3204 10.6576C46.4153 10.7103 46.4731 10.8038 46.4731 10.9044V13.3018ZM46.1525 13.3018V10.9044L37.1771 15.0151V17.4772L46.1525 13.3018Z" fill="black"/>
<path fill-rule="evenodd" clip-rule="evenodd" d="M36.9243 6.48376C37.0154 6.44198 37.1231 6.44198 37.2142 6.48376L46.1865 10.5959C46.2942 10.6452 46.362 10.7451 46.362 10.8542C46.362 10.9633 46.2942 11.0632 46.1865 11.1126L37.2142 15.2247C37.1231 15.2665 37.0154 15.2665 36.9243 15.2247L27.952 11.1126C27.8443 11.0632 27.7764 10.9633 27.7764 10.8542C27.7764 10.7451 27.8443 10.6452 27.952 10.5959L36.9243 6.48376ZM28.097 10.8542L37.0692 14.9663L46.0415 10.8542L37.0692 6.74211L28.097 10.8542Z" fill="black"/>
<path d="M37.0687 6.74231L28.0967 10.8544L37.0687 14.9665L46.0412 10.8544L37.0687 6.74231Z" fill="#E0E0E0"/>
<path d="M37.4874 17.654L37.0186 17.8824L36.5498 17.654C36.5498 17.5278 37.0186 17.5778 37.0186 17.5778C37.0186 17.5778 37.4874 17.5278 37.4874 17.654Z" fill="black"/>
<path d="M27.7656 21.6537L18.9463 17.4783V15.0809L27.7656 19.1916V21.6537Z" fill="#82FF05"/>
<path d="M28.082 21.6537L37.0575 17.4783V15.0809L28.082 19.1916V21.6537Z" fill="#82FF05"/>
<path fill-rule="evenodd" clip-rule="evenodd" d="M18.626 17.4784C18.626 17.5838 18.6893 17.6808 18.7913 17.7318L27.6106 21.9072C27.7099 21.9569 27.8308 21.9554 27.9286 21.9033C28.0264 21.8512 28.0864 21.7564 28.0864 21.6538V19.1917C28.0864 19.0826 28.0184 18.9827 27.9107 18.9333L19.0914 14.8227C18.9921 14.7772 18.8737 14.7815 18.7787 14.8342C18.6838 14.8869 18.626 14.9804 18.626 15.081V17.4784ZM18.9465 17.4784V15.081L27.7658 19.1917V21.6538L18.9465 17.4784Z" fill="black"/>
<path fill-rule="evenodd" clip-rule="evenodd" d="M37.3783 17.4784C37.3783 17.5838 37.315 17.6808 37.2131 17.7318L28.2375 21.9072C28.1382 21.9569 28.0173 21.9554 27.9195 21.9033C27.8217 21.8512 27.7617 21.7564 27.7617 21.6538V19.1917C27.7617 19.0826 27.8296 18.9827 27.9373 18.9333L36.9129 14.8227C37.0122 14.7772 37.1306 14.7815 37.2256 14.8342C37.3205 14.8869 37.3783 14.9804 37.3783 15.081V17.4784ZM37.0578 17.4784V15.081L28.0823 19.1917V21.6538L37.0578 17.4784Z" fill="black"/>
<path fill-rule="evenodd" clip-rule="evenodd" d="M27.8295 10.6604C27.9206 10.6186 28.0283 10.6186 28.1194 10.6604L37.0918 14.7725C37.1995 14.8218 37.2673 14.9217 37.2673 15.0309C37.2673 15.1399 37.1995 15.2398 37.0918 15.2891L28.1194 19.4013C28.0283 19.443 27.9206 19.443 27.8295 19.4013L18.8572 15.2891C18.7495 15.2398 18.6816 15.1399 18.6816 15.0309C18.6816 14.9217 18.7495 14.8218 18.8572 14.7725L27.8295 10.6604ZM19.0022 15.0309L27.9745 19.143L36.9468 15.0309L27.9745 10.9187L19.0022 15.0309Z" fill="black"/>
<path d="M27.973 10.9189L19.001 15.031L27.973 19.1432L36.9456 15.031L27.973 10.9189Z" fill="#E0E0E0"/>
<path d="M46.163 21.6537L37.3438 17.4783V15.0809L46.163 19.1916V21.6537Z" fill="#82FF05"/>
<path d="M46.4795 21.6537L55.455 17.4783V15.0809L46.4795 19.1916V21.6537Z" fill="#82FF05"/>
<path fill-rule="evenodd" clip-rule="evenodd" d="M37.0234 17.4784C37.0234 17.5838 37.0868 17.6808 37.1888 17.7319L46.008 21.9072C46.1073 21.9569 46.2283 21.9554 46.326 21.9033C46.4238 21.8513 46.4838 21.7564 46.4838 21.6538V19.1917C46.4838 19.0826 46.416 18.9827 46.3082 18.9333L37.489 14.8227C37.3896 14.7772 37.2712 14.7815 37.1762 14.8342C37.0813 14.8869 37.0234 14.9804 37.0234 15.081V17.4784ZM37.344 17.4784V15.081L46.1633 19.1917V21.6538L37.344 17.4784Z" fill="black"/>
<path fill-rule="evenodd" clip-rule="evenodd" d="M55.7758 17.4784C55.7758 17.5838 55.7125 17.6808 55.6105 17.7319L46.635 21.9072C46.5357 21.9569 46.4147 21.9554 46.3169 21.9033C46.2192 21.8513 46.1592 21.7564 46.1592 21.6538V19.1917C46.1592 19.0826 46.2271 18.9827 46.3348 18.9333L55.3103 14.8227C55.4097 14.7772 55.5281 14.7815 55.623 14.8342C55.7179 14.8869 55.7758 14.9804 55.7758 15.081V17.4784ZM55.4553 17.4784V15.081L46.4797 19.1917V21.6538L55.4553 17.4784Z" fill="black"/>
<path fill-rule="evenodd" clip-rule="evenodd" d="M46.227 10.6604C46.3181 10.6186 46.4258 10.6186 46.517 10.6604L55.4892 14.7725C55.5969 14.8218 55.6648 14.9217 55.6648 15.0309C55.6648 15.1399 55.5969 15.2398 55.4892 15.2891L46.517 19.4013C46.4258 19.443 46.3181 19.443 46.227 19.4013L37.2546 15.2891C37.1469 15.2398 37.0791 15.1399 37.0791 15.0309C37.0791 14.9217 37.1469 14.8218 37.2546 14.7725L46.227 10.6604ZM37.3996 15.0309L46.372 19.143L55.3442 15.0309L46.372 10.9187L37.3996 15.0309Z" fill="black"/>
<path d="M46.3715 10.9189L37.3994 15.031L46.3715 19.1432L55.344 15.031L46.3715 10.9189Z" fill="#E0E0E0"/>
<path d="M36.9071 25.9402L28.0879 21.7648V19.3674L36.9071 23.4781V25.9402Z" fill="#82FF05"/>
<path d="M37.2236 25.9402L46.1992 21.7648V19.3674L37.2236 23.4781V25.9402Z" fill="#82FF05"/>
<path fill-rule="evenodd" clip-rule="evenodd" d="M27.7666 21.7649C27.7666 21.8702 27.8299 21.9673 27.9319 22.0183L36.7512 26.1937C36.8504 26.2434 36.9714 26.2419 37.0691 26.1899C37.1669 26.1378 37.227 26.0428 37.227 25.9403V23.4782C37.227 23.369 37.1591 23.2691 37.0513 23.2198L28.2321 19.1092C28.1327 19.0636 28.0143 19.068 27.9194 19.1207C27.8244 19.1734 27.7666 19.2669 27.7666 19.3675V21.7649ZM28.0871 21.7649V19.3675L36.9064 23.4782V25.9403L28.0871 21.7649Z" fill="black"/>
<path fill-rule="evenodd" clip-rule="evenodd" d="M46.519 21.7649C46.519 21.8702 46.4557 21.9673 46.3537 22.0183L37.3781 26.1937C37.2788 26.2434 37.158 26.2419 37.0602 26.1899C36.9624 26.1378 36.9023 26.0428 36.9023 25.9403V23.4782C36.9023 23.369 36.9703 23.2691 37.078 23.2198L46.0535 19.1092C46.1529 19.0636 46.2713 19.068 46.3663 19.1207C46.4612 19.1734 46.519 19.2669 46.519 19.3675V21.7649ZM46.1984 21.7649V19.3675L37.2229 23.4782V25.9403L46.1984 21.7649Z" fill="black"/>
<path fill-rule="evenodd" clip-rule="evenodd" d="M36.9702 14.9469C37.0613 14.9051 37.169 14.9051 37.2601 14.9469L46.2324 19.059C46.3401 19.1084 46.408 19.2082 46.408 19.3173C46.408 19.4264 46.3401 19.5263 46.2324 19.5757L37.2601 23.6878C37.169 23.7296 37.0613 23.7296 36.9702 23.6878L27.9979 19.5757C27.8902 19.5263 27.8223 19.4264 27.8223 19.3173C27.8223 19.2082 27.8902 19.1084 27.9979 19.059L36.9702 14.9469ZM28.1429 19.3173L37.1151 23.4294L46.0874 19.3173L37.1151 15.2052L28.1429 19.3173Z" fill="black"/>
<path d="M37.1146 15.2054L28.1426 19.3176L37.1146 23.4297L46.0871 19.3176L37.1146 15.2054Z" fill="#E0E0E0"/>
<path d="M18.5439 25.9402L9.72461 21.7648V19.3674L18.5439 23.4781V25.9402Z" fill="#82FF05"/>
<path d="M18.8604 25.9402L27.8358 21.7648V19.3674L18.8604 23.4781V25.9402Z" fill="#82FF05"/>
<path fill-rule="evenodd" clip-rule="evenodd" d="M9.40527 21.7649C9.40527 21.8702 9.4686 21.9673 9.57061 22.0183L18.3898 26.1937C18.4891 26.2434 18.6101 26.2419 18.7079 26.1899C18.8056 26.1378 18.8656 26.0428 18.8656 25.9403V23.4782C18.8656 23.369 18.7977 23.2691 18.69 23.2198L9.87073 19.1092C9.77136 19.0636 9.65297 19.068 9.55804 19.1207C9.46312 19.1734 9.40527 19.2669 9.40527 19.3675V21.7649ZM9.72581 21.7649V19.3675L18.5451 23.4782V25.9403L9.72581 21.7649Z" fill="black"/>
<path fill-rule="evenodd" clip-rule="evenodd" d="M28.1566 21.7649C28.1566 21.8702 28.0934 21.9673 27.9914 22.0183L19.0158 26.1937C18.9165 26.2434 18.7956 26.2419 18.6978 26.1899C18.6 26.1378 18.54 26.0428 18.54 25.9403V23.4782C18.54 23.369 18.6079 23.2691 18.7157 23.2198L27.6912 19.1092C27.7906 19.0636 27.9089 19.068 28.0039 19.1207C28.0988 19.1734 28.1566 19.2669 28.1566 19.3675V21.7649ZM27.8361 21.7649V19.3675L18.8606 23.4782V25.9403L27.8361 21.7649Z" fill="black"/>
<path fill-rule="evenodd" clip-rule="evenodd" d="M18.6078 14.9469C18.699 14.9051 18.8067 14.9051 18.8978 14.9469L27.8701 19.059C27.9778 19.1084 28.0456 19.2082 28.0456 19.3173C28.0456 19.4264 27.9778 19.5263 27.8701 19.5757L18.8978 23.6878C18.8067 23.7296 18.699 23.7296 18.6078 23.6878L9.63551 19.5757C9.5278 19.5263 9.45996 19.4264 9.45996 19.3173C9.45996 19.2082 9.5278 19.1084 9.63551 19.059L18.6078 14.9469ZM9.7805 19.3173L18.7528 23.4294L27.7251 19.3173L18.7528 15.2052L9.7805 19.3173Z" fill="black"/>
<path d="M18.7523 15.2054L9.78027 19.3176L18.7523 23.4297L27.7249 19.3176L18.7523 15.2054Z" fill="#E0E0E0"/>
<path d="M27.5918 30.2536L18.7725 26.0782V23.6808L27.5918 27.7915V30.2536Z" fill="#82FF05"/>
<path d="M27.9082 30.2536L36.8837 26.0782V23.6808L27.9082 27.7915V30.2536Z" fill="#82FF05"/>
<path fill-rule="evenodd" clip-rule="evenodd" d="M18.4521 26.0784C18.4521 26.1837 18.5155 26.2807 18.6175 26.3318L27.4367 30.5071C27.536 30.5568 27.657 30.5553 27.7547 30.5033C27.8525 30.4512 27.9125 30.3563 27.9125 30.2537V27.7916C27.9125 27.6825 27.8446 27.5826 27.7369 27.5333L18.9176 23.4226C18.8182 23.3771 18.6998 23.3815 18.6049 23.4341C18.51 23.4869 18.4521 23.5803 18.4521 23.681V26.0784ZM18.7727 26.0784V23.681L27.592 27.7916V30.2537L18.7727 26.0784Z" fill="black"/>
<path fill-rule="evenodd" clip-rule="evenodd" d="M37.2045 26.0784C37.2045 26.1837 37.1412 26.2807 37.0392 26.3318L28.0637 30.5071C27.9644 30.5568 27.8434 30.5553 27.7457 30.5033C27.6479 30.4512 27.5879 30.3563 27.5879 30.2537V27.7916C27.5879 27.6825 27.6557 27.5826 27.7635 27.5333L36.739 23.4226C36.8384 23.3771 36.9568 23.3815 37.0517 23.4341C37.1467 23.4869 37.2045 23.5803 37.2045 23.681V26.0784ZM36.884 26.0784V23.681L27.9084 27.7916V30.2537L36.884 26.0784Z" fill="black"/>
<path fill-rule="evenodd" clip-rule="evenodd" d="M27.6556 19.2603C27.7468 19.2185 27.8545 19.2185 27.9456 19.2603L36.918 23.3724C37.0257 23.4218 37.0935 23.5217 37.0935 23.6307C37.0935 23.7398 37.0257 23.8397 36.918 23.8891L27.9456 28.0012C27.8545 28.043 27.7468 28.043 27.6556 28.0012L18.6834 23.8891C18.5757 23.8397 18.5078 23.7398 18.5078 23.6307C18.5078 23.5217 18.5757 23.4218 18.6834 23.3724L27.6556 19.2603ZM18.8283 23.6307L27.8006 27.7429L36.773 23.6307L27.8006 19.5186L18.8283 23.6307Z" fill="black"/>
<path d="M27.1395 11.0246L18.3203 6.84922V4.45184L27.1395 8.56249V11.0246Z" fill="#C0BDAC"/>
<path d="M27.8002 19.5188L18.8281 23.6309L27.8002 27.7431L36.7727 23.6309L27.8002 19.5188Z" fill="#E0E0E0"/>
<path d="M27.4561 11.0246L36.4316 6.84922V4.45184L27.4561 8.56249V11.0246Z" fill="#C0BDAC"/>
<path d="M28.2189 30.4305L27.7501 30.6589L27.2812 30.4305C27.2812 30.3043 27.7501 30.3544 27.7501 30.3544C27.7501 30.3544 28.2189 30.3043 28.2189 30.4305Z" fill="black"/>
<path fill-rule="evenodd" clip-rule="evenodd" d="M18 6.8493C18 6.95469 18.0633 7.05172 18.1653 7.10277L26.9845 11.2781C27.0838 11.3278 27.2048 11.3263 27.3025 11.2742C27.4003 11.2222 27.4603 11.1273 27.4603 11.0247V8.56264C27.4603 8.45348 27.3925 8.3536 27.2847 8.30422L18.4655 4.19357C18.3661 4.1481 18.2477 4.15242 18.1528 4.20515C18.0578 4.25781 18 4.35128 18 4.45193V6.8493ZM18.3205 6.8493V4.45193L27.1398 8.56264V11.0247L18.3205 6.8493Z" fill="black"/>
<path fill-rule="evenodd" clip-rule="evenodd" d="M36.7524 6.8493C36.7524 6.95469 36.6891 7.05172 36.5871 7.10277L27.6115 11.2781C27.5122 11.3278 27.3913 11.3263 27.2935 11.2742C27.1957 11.2222 27.1357 11.1273 27.1357 11.0247V8.56264C27.1357 8.45348 27.2037 8.3536 27.3114 8.30422L36.2869 4.19357C36.3863 4.1481 36.5047 4.15242 36.5997 4.20515C36.6946 4.25781 36.7524 4.35128 36.7524 4.45193V6.8493ZM36.4318 6.8493V4.45193L27.4563 8.56264V11.0247L36.4318 6.8493Z" fill="black"/>
<path d="M18.4453 15.0556L9.62598 10.8802V8.48285L18.4453 12.5935V15.0556Z" fill="#C0BDAC"/>
<path d="M18.7617 15.0556L27.7372 10.8802V8.48285L18.7617 12.5935V15.0556Z" fill="#C0BDAC"/>
<path fill-rule="evenodd" clip-rule="evenodd" d="M9.30664 10.8803C9.30664 10.9856 9.36997 11.0827 9.47198 11.1337L18.2912 15.3091C18.3905 15.3588 18.5115 15.3573 18.6092 15.3052C18.707 15.2531 18.767 15.1582 18.767 15.0556V12.5935C18.767 12.4845 18.6991 12.3846 18.5914 12.3352L9.7721 8.22455C9.67273 8.179 9.55433 8.18339 9.45941 8.23612C9.36448 8.28878 9.30664 8.38225 9.30664 8.4829V10.8803ZM9.62718 10.8803V8.4829L18.4465 12.5935V15.0556L9.62718 10.8803Z" fill="black"/>
<path fill-rule="evenodd" clip-rule="evenodd" d="M28.059 10.8803C28.059 10.9856 27.9957 11.0827 27.8937 11.1337L18.9182 15.3091C18.8189 15.3588 18.6979 15.3573 18.6002 15.3052C18.5024 15.2531 18.4424 15.1582 18.4424 15.0556V12.5935C18.4424 12.4845 18.5102 12.3846 18.618 12.3352L27.5935 8.22455C27.6929 8.179 27.8113 8.18339 27.9062 8.23612C28.0011 8.28878 28.059 8.38225 28.059 8.4829V10.8803ZM27.7385 10.8803V8.4829L18.7629 12.5935V15.0556L27.7385 10.8803Z" fill="black"/>
<path fill-rule="evenodd" clip-rule="evenodd" d="M18.5091 4.06231C18.6003 4.02053 18.708 4.02053 18.7991 4.06231L27.7715 8.17442C27.8792 8.22373 27.947 8.32362 27.947 8.4327C27.947 8.54186 27.8792 8.64168 27.7715 8.69106L18.7991 12.8032C18.708 12.8449 18.6003 12.8449 18.5091 12.8032L9.53687 8.69106C9.42917 8.64168 9.36133 8.54186 9.36133 8.4327C9.36133 8.32362 9.42917 8.22373 9.53687 8.17442L18.5091 4.06231ZM9.68186 8.4327L18.6541 12.5448L27.6265 8.4327L18.6541 4.32059L9.68186 8.4327Z" fill="black"/>
<path d="M18.6537 4.3208L9.68164 8.43291L18.6537 12.545L27.6263 8.43291L18.6537 4.3208Z" fill="#E0E0E0"/>
<path d="M18.4453 13.0556L9.62598 8.88023V6.48285L18.4453 10.5935V13.0556Z" fill="#C0BDAC"/>
<path d="M18.7617 13.0556L27.7372 8.88023V6.48285L18.7617 10.5935V13.0556Z" fill="#C0BDAC"/>
<path fill-rule="evenodd" clip-rule="evenodd" d="M9.30664 8.88027C9.30664 8.9856 9.36997 9.08269 9.47198 9.13368L18.2912 13.3091C18.3905 13.3588 18.5115 13.3573 18.6092 13.3052C18.707 13.2531 18.767 13.1582 18.767 13.0556V10.5935C18.767 10.4845 18.6991 10.3846 18.5914 10.3352L9.7721 6.22455C9.67273 6.179 9.55433 6.18339 9.45941 6.23612C9.36448 6.28878 9.30664 6.38225 9.30664 6.4829V8.88027ZM9.62718 8.88027V6.4829L18.4465 10.5935V13.0556L9.62718 8.88027Z" fill="black"/>
<path fill-rule="evenodd" clip-rule="evenodd" d="M28.059 8.88027C28.059 8.9856 27.9957 9.08269 27.8937 9.13368L18.9182 13.3091C18.8189 13.3588 18.6979 13.3573 18.6002 13.3052C18.5024 13.2531 18.4424 13.1582 18.4424 13.0556V10.5935C18.4424 10.4845 18.5102 10.3846 18.618 10.3352L27.5935 6.22455C27.6929 6.179 27.8113 6.18339 27.9062 6.23612C28.0011 6.28878 28.059 6.38225 28.059 6.4829V8.88027ZM27.7385 8.88027V6.4829L18.7629 10.5935V13.0556L27.7385 8.88027Z" fill="black"/>
<path fill-rule="evenodd" clip-rule="evenodd" d="M18.5091 2.06231C18.6003 2.02053 18.708 2.02053 18.7991 2.06231L27.7715 6.17442C27.8792 6.22373 27.947 6.32362 27.947 6.4327C27.947 6.54186 27.8792 6.64168 27.7715 6.69106L18.7991 10.8032C18.708 10.8449 18.6003 10.8449 18.5091 10.8032L9.53687 6.69106C9.42917 6.64168 9.36133 6.54186 9.36133 6.4327C9.36133 6.32362 9.42917 6.22373 9.53687 6.17442L18.5091 2.06231ZM9.68186 6.4327L18.6541 10.5448L27.6265 6.4327L18.6541 2.32059L9.68186 6.4327Z" fill="black"/>
<path d="M18.6537 2.3208L9.68164 6.43291L18.6537 10.545L27.6263 6.43291L18.6537 2.3208Z" fill="#E0E0E0"/>
<path d="M9.36422 19.2211L0.544922 15.0457V12.6483L9.36422 16.759V19.2211Z" fill="#C0BDAC"/>
<path d="M9.68066 19.2211L18.6561 15.0457V12.6483L9.68066 16.759V19.2211Z" fill="#C0BDAC"/>
<path fill-rule="evenodd" clip-rule="evenodd" d="M0.223633 15.0458C0.223633 15.1512 0.286962 15.2482 0.388969 15.2992L9.2082 19.4746C9.3075 19.5243 9.42846 19.5228 9.52623 19.4707C9.624 19.4187 9.684 19.3237 9.684 19.2212V16.7591C9.684 16.65 9.61609 16.5501 9.50839 16.5007L0.689089 12.39C0.589721 12.3446 0.471325 12.3489 0.376401 12.4016C0.281476 12.4543 0.223633 12.5477 0.223633 12.6484V15.0458ZM0.544168 15.0458V12.6484L9.36346 16.7591V19.2212L0.544168 15.0458Z" fill="black"/>
<path fill-rule="evenodd" clip-rule="evenodd" d="M18.976 15.0458C18.976 15.1512 18.9127 15.2482 18.8107 15.2992L9.83518 19.4746C9.73588 19.5243 9.61491 19.5228 9.51714 19.4707C9.41937 19.4187 9.35938 19.3237 9.35938 19.2212V16.7591C9.35938 16.65 9.42722 16.5501 9.53499 16.5007L18.5105 12.39C18.6099 12.3446 18.7283 12.3489 18.8232 12.4016C18.9181 12.4543 18.976 12.5477 18.976 12.6484V15.0458ZM18.6554 15.0458V12.6484L9.67991 16.7591V19.2212L18.6554 15.0458Z" fill="black"/>
<path fill-rule="evenodd" clip-rule="evenodd" d="M9.42712 8.22781C9.51829 8.18603 9.62599 8.18603 9.7171 8.22781L18.6894 12.3399C18.7971 12.3893 18.865 12.4891 18.865 12.5983C18.865 12.7074 18.7971 12.8072 18.6894 12.8566L9.7171 16.9687C9.62599 17.0104 9.51829 17.0104 9.42712 16.9687L0.454841 12.8566C0.34714 12.8072 0.279297 12.7074 0.279297 12.5983C0.279297 12.4891 0.34714 12.3893 0.454841 12.3399L9.42712 8.22781ZM0.599832 12.5983L9.57211 16.7104L18.5444 12.5983L9.57211 8.48609L0.599832 12.5983Z" fill="black"/>
<path d="M9.57265 8.48627L0.600586 12.5984L9.57265 16.7106L18.5452 12.5984L9.57265 8.48627Z" fill="#E0E0E0"/>
<path d="M9.57265 8.48627L0.600586 12.5984L9.57265 16.7106L18.5452 12.5984L9.57265 8.48627Z" fill="#E0E0E0"/>
<path d="M9.36422 17.2211L0.544922 13.0457V10.6483L9.36422 14.759V17.2211Z" fill="#C0BDAC"/>
<path d="M9.68066 17.2211L18.6561 13.0457V10.6483L9.68066 14.759V17.2211Z" fill="#C0BDAC"/>
<path fill-rule="evenodd" clip-rule="evenodd" d="M0.223633 13.0458C0.223633 13.1512 0.286962 13.2482 0.388969 13.2992L9.2082 17.4746C9.3075 17.5243 9.42846 17.5228 9.52623 17.4707C9.624 17.4187 9.684 17.3237 9.684 17.2212V14.7591C9.684 14.65 9.61609 14.5501 9.50839 14.5007L0.689089 10.39C0.589721 10.3446 0.471325 10.3489 0.376401 10.4016C0.281476 10.4543 0.223633 10.5477 0.223633 10.6484V13.0458ZM0.544168 13.0458V10.6484L9.36346 14.7591V17.2212L0.544168 13.0458Z" fill="black"/>
<path fill-rule="evenodd" clip-rule="evenodd" d="M18.976 13.0458C18.976 13.1512 18.9127 13.2482 18.8107 13.2992L9.83518 17.4746C9.73588 17.5243 9.61491 17.5228 9.51714 17.4707C9.41937 17.4187 9.35938 17.3237 9.35938 17.2212V14.7591C9.35938 14.65 9.42722 14.5501 9.53499 14.5007L18.5105 10.39C18.6099 10.3446 18.7283 10.3489 18.8232 10.4016C18.9181 10.4543 18.976 10.5477 18.976 10.6484V13.0458ZM18.6554 13.0458V10.6484L9.67991 14.7591V17.2212L18.6554 13.0458Z" fill="black"/>
<path fill-rule="evenodd" clip-rule="evenodd" d="M9.42712 6.22781C9.51829 6.18603 9.62599 6.18603 9.7171 6.22781L18.6894 10.3399C18.7971 10.3893 18.865 10.4891 18.865 10.5983C18.865 10.7074 18.7971 10.8072 18.6894 10.8566L9.7171 14.9687C9.62599 15.0104 9.51829 15.0104 9.42712 14.9687L0.454841 10.8566C0.34714 10.8072 0.279297 10.7074 0.279297 10.5983C0.279297 10.4891 0.34714 10.3893 0.454841 10.3399L9.42712 6.22781ZM0.599832 10.5983L9.57211 14.7104L18.5444 10.5983L9.57211 6.48609L0.599832 10.5983Z" fill="black"/>
<path d="M36.9433 14.9783L28.124 10.803V8.40558L36.9433 12.5162V14.9783Z" fill="#C0BDAC"/>
<path d="M37.2598 14.9783L46.2352 10.803V8.40558L37.2598 12.5162V14.9783Z" fill="#C0BDAC"/>
<path fill-rule="evenodd" clip-rule="evenodd" d="M27.8027 10.8031C27.8027 10.9084 27.8661 11.0054 27.9681 11.0565L36.7873 15.2319C36.8866 15.2815 37.0076 15.2801 37.1053 15.228C37.2031 15.1759 37.2631 15.081 37.2631 14.9785V12.5164C37.2631 12.4072 37.1952 12.3073 37.0875 12.258L28.2682 8.14728C28.1688 8.10181 28.0504 8.1062 27.9555 8.15886C27.8606 8.21159 27.8027 8.30499 27.8027 8.40571V10.8031ZM28.1233 10.8031V8.40571L36.9426 12.5164V14.9785L28.1233 10.8031Z" fill="black"/>
<path fill-rule="evenodd" clip-rule="evenodd" d="M46.5561 10.8031C46.5561 10.9084 46.4927 11.0054 46.3907 11.0565L37.4153 15.2319C37.316 15.2815 37.195 15.2801 37.0972 15.228C36.9994 15.1759 36.9395 15.081 36.9395 14.9785V12.5164C36.9395 12.4072 37.0073 12.3073 37.1151 12.258L46.0906 8.14728C46.19 8.10181 46.3084 8.1062 46.4033 8.15886C46.4982 8.21159 46.5561 8.30499 46.5561 8.40571V10.8031ZM46.2355 10.8031V8.40571L37.26 12.5164V14.9785L46.2355 10.8031Z" fill="black"/>
<path fill-rule="evenodd" clip-rule="evenodd" d="M37.0072 3.98504C37.0984 3.94326 37.2061 3.94326 37.2972 3.98504L46.2695 8.09715C46.3772 8.14654 46.4451 8.24642 46.4451 8.3555C46.4451 8.46459 46.3772 8.56448 46.2695 8.61386L37.2972 12.726C37.2061 12.7677 37.0984 12.7677 37.0072 12.726L28.0349 8.61386C27.9272 8.56448 27.8594 8.46459 27.8594 8.3555C27.8594 8.24642 27.9272 8.14654 28.0349 8.09715L37.0072 3.98504ZM28.1799 8.3555L37.1522 12.4676L46.1245 8.3555L37.1522 4.24339L28.1799 8.3555Z" fill="black"/>
<path d="M37.1518 4.24359L28.1797 8.3557L37.1518 12.4678L46.1243 8.3557L37.1518 4.24359Z" fill="#E0E0E0"/>
<path d="M36.9433 12.9783L28.124 8.80296V6.40558L36.9433 10.5162V12.9783Z" fill="#C0BDAC"/>
<path d="M37.2598 12.9783L46.2352 8.80296V6.40558L37.2598 10.5162V12.9783Z" fill="#C0BDAC"/>
<path fill-rule="evenodd" clip-rule="evenodd" d="M27.8027 8.80309C27.8027 8.90841 27.8661 9.00543 27.9681 9.05649L36.7873 13.2319C36.8866 13.2815 37.0076 13.2801 37.1053 13.228C37.2031 13.1759 37.2631 13.081 37.2631 12.9785V10.5164C37.2631 10.4072 37.1952 10.3073 37.0875 10.258L28.2682 6.14728C28.1688 6.10181 28.0504 6.1062 27.9555 6.15886C27.8606 6.21159 27.8027 6.30499 27.8027 6.40571V8.80309ZM28.1233 8.80309V6.40571L36.9426 10.5164V12.9785L28.1233 8.80309Z" fill="black"/>
<path fill-rule="evenodd" clip-rule="evenodd" d="M46.5561 8.80309C46.5561 8.90841 46.4927 9.00543 46.3907 9.05649L37.4153 13.2319C37.316 13.2815 37.195 13.2801 37.0972 13.228C36.9994 13.1759 36.9395 13.081 36.9395 12.9785V10.5164C36.9395 10.4072 37.0073 10.3073 37.1151 10.258L46.0906 6.14728C46.19 6.10181 46.3084 6.1062 46.4033 6.15886C46.4982 6.21159 46.5561 6.30499 46.5561 6.40571V8.80309ZM46.2355 8.80309V6.40571L37.26 10.5164V12.9785L46.2355 8.80309Z" fill="black"/>
<path fill-rule="evenodd" clip-rule="evenodd" d="M37.0072 1.98504C37.0984 1.94326 37.2061 1.94326 37.2972 1.98504L46.2695 6.09715C46.3772 6.14654 46.4451 6.24642 46.4451 6.3555C46.4451 6.46459 46.3772 6.56448 46.2695 6.61386L37.2972 10.726C37.2061 10.7677 37.0984 10.7677 37.0072 10.726L28.0349 6.61386C27.9272 6.56448 27.8594 6.46459 27.8594 6.3555C27.8594 6.24642 27.9272 6.14654 28.0349 6.09715L37.0072 1.98504ZM28.1799 6.3555L37.1522 10.4676L46.1245 6.3555L37.1522 2.24339L28.1799 6.3555Z" fill="black"/>
<path d="M37.1518 2.24359L28.1797 6.3557L37.1518 10.4678L46.1243 6.3557L37.1518 2.24359Z" fill="#E0E0E0"/>
<path d="M9.57265 6.48627L0.600586 10.5984L9.57265 14.7106L18.5452 10.5984L9.57265 6.48627Z" fill="#E0E0E0"/>
<path d="M27.7235 19.2211L18.9043 15.0457V12.6483L27.7235 16.759V19.2211Z" fill="#C0BDAC"/>
<path d="M28.04 19.2211L37.0156 15.0457V12.6483L28.04 16.759V19.2211Z" fill="#C0BDAC"/>
<path fill-rule="evenodd" clip-rule="evenodd" d="M18.584 15.0458C18.584 15.1512 18.6472 15.2482 18.7493 15.2992L27.5685 19.4746C27.6678 19.5243 27.7887 19.5228 27.8865 19.4707C27.9843 19.4187 28.0443 19.3237 28.0443 19.2212V16.7591C28.0443 16.65 27.9764 16.5501 27.8687 16.5007L19.0494 12.39C18.9501 12.3446 18.8317 12.3489 18.7368 12.4016C18.6418 12.4543 18.584 12.5477 18.584 12.6484V15.0458ZM18.9045 15.0458V12.6484L27.7237 16.7591V19.2212L18.9045 15.0458Z" fill="black"/>
<path fill-rule="evenodd" clip-rule="evenodd" d="M37.3364 15.0458C37.3364 15.1512 37.2731 15.2482 37.1711 15.2992L28.1955 19.4746C28.0962 19.5243 27.9753 19.5228 27.8775 19.4707C27.7797 19.4187 27.7197 19.3237 27.7197 19.2212V16.7591C27.7197 16.65 27.7876 16.5501 27.8954 16.5007L36.8709 12.39C36.9702 12.3446 37.0886 12.3489 37.1836 12.4016C37.2786 12.4543 37.3364 12.5477 37.3364 12.6484V15.0458ZM37.0158 15.0458V12.6484L28.0403 16.7591V19.2212L37.0158 15.0458Z" fill="black"/>
<path fill-rule="evenodd" clip-rule="evenodd" d="M27.7866 8.22781C27.8777 8.18603 27.9854 8.18603 28.0765 8.22781L37.0488 12.3399C37.1565 12.3893 37.2244 12.4891 37.2244 12.5983C37.2244 12.7074 37.1565 12.8072 37.0488 12.8566L28.0765 16.9687C27.9854 17.0104 27.8777 17.0104 27.7866 16.9687L18.8142 12.8566C18.7066 12.8072 18.6387 12.7074 18.6387 12.5983C18.6387 12.4891 18.7066 12.3893 18.8142 12.3399L27.7866 8.22781ZM18.9593 12.5983L27.9316 16.7104L36.9038 12.5983L27.9316 8.48609L18.9593 12.5983Z" fill="black"/>
<path d="M27.932 8.48627L18.96 12.5984L27.932 16.7106L36.9045 12.5984L27.932 8.48627Z" fill="#E0E0E0"/>
<path d="M46.163 19.2211L37.3438 15.0457V12.6483L46.163 16.759V19.2211Z" fill="#C0BDAC"/>
<path d="M46.4795 19.2211L55.455 15.0457V12.6483L46.4795 16.759V19.2211Z" fill="#C0BDAC"/>
<path fill-rule="evenodd" clip-rule="evenodd" d="M37.0234 15.0458C37.0234 15.1512 37.0868 15.2482 37.1888 15.2992L46.008 19.4746C46.1073 19.5243 46.2283 19.5228 46.326 19.4707C46.4238 19.4187 46.4838 19.3237 46.4838 19.2212V16.7591C46.4838 16.65 46.416 16.5501 46.3082 16.5007L37.489 12.39C37.3896 12.3446 37.2712 12.3489 37.1762 12.4016C37.0813 12.4543 37.0234 12.5477 37.0234 12.6484V15.0458ZM37.344 15.0458V12.6484L46.1633 16.7591V19.2212L37.344 15.0458Z" fill="black"/>
<path fill-rule="evenodd" clip-rule="evenodd" d="M55.7758 15.0458C55.7758 15.1512 55.7125 15.2482 55.6105 15.2992L46.635 19.4746C46.5357 19.5243 46.4147 19.5228 46.3169 19.4707C46.2192 19.4187 46.1592 19.3237 46.1592 19.2212V16.7591C46.1592 16.65 46.2271 16.5501 46.3348 16.5007L55.3103 12.39C55.4097 12.3446 55.5281 12.3489 55.623 12.4016C55.7179 12.4543 55.7758 12.5477 55.7758 12.6484V15.0458ZM55.4553 15.0458V12.6484L46.4797 16.7591V19.2212L55.4553 15.0458Z" fill="black"/>
<path d="M27.7235 17.2211L18.9043 13.0457V10.6483L27.7235 14.759V17.2211Z" fill="#C0BDAC"/>
<path fill-rule="evenodd" clip-rule="evenodd" d="M46.227 8.22781C46.3181 8.18603 46.4258 8.18603 46.517 8.22781L55.4892 12.3399C55.5969 12.3893 55.6648 12.4891 55.6648 12.5983C55.6648 12.7074 55.5969 12.8072 55.4892 12.8566L46.517 16.9687C46.4258 17.0104 46.3181 17.0104 46.227 16.9687L37.2546 12.8566C37.1469 12.8072 37.0791 12.7074 37.0791 12.5983C37.0791 12.4891 37.1469 12.3893 37.2546 12.3399L46.227 8.22781ZM37.3996 12.5983L46.372 16.7104L55.3442 12.5983L46.372 8.48609L37.3996 12.5983Z" fill="black"/>
<path d="M28.04 17.2211L37.0156 13.0457V10.6483L28.04 14.759V17.2211Z" fill="#C0BDAC"/>
<path d="M46.3715 8.48627L37.3994 12.5984L46.3715 16.7106L55.344 12.5984L46.3715 8.48627Z" fill="#E0E0E0"/>
<path fill-rule="evenodd" clip-rule="evenodd" d="M18.584 13.0458C18.584 13.1512 18.6472 13.2482 18.7493 13.2992L27.5685 17.4746C27.6678 17.5243 27.7887 17.5228 27.8865 17.4707C27.9843 17.4187 28.0443 17.3237 28.0443 17.2212V14.7591C28.0443 14.65 27.9764 14.5501 27.8687 14.5007L19.0494 10.39C18.9501 10.3446 18.8317 10.3489 18.7368 10.4016C18.6418 10.4543 18.584 10.5477 18.584 10.6484V13.0458ZM18.9045 13.0458V10.6484L27.7237 14.7591V17.2212L18.9045 13.0458Z" fill="black"/>
<path d="M46.7901 19.398L46.3213 19.6263L45.8525 19.398C45.8525 19.2718 46.3213 19.3219 46.3213 19.3219C46.3213 19.3219 46.7901 19.2718 46.7901 19.398Z" fill="black"/>
<path fill-rule="evenodd" clip-rule="evenodd" d="M37.3364 13.0458C37.3364 13.1512 37.2731 13.2482 37.1711 13.2992L28.1955 17.4746C28.0962 17.5243 27.9753 17.5228 27.8775 17.4707C27.7797 17.4187 27.7197 17.3237 27.7197 17.2212V14.7591C27.7197 14.65 27.7876 14.5501 27.8954 14.5007L36.8709 10.39C36.9702 10.3446 37.0886 10.3489 37.1836 10.4016C37.2786 10.4543 37.3364 10.5477 37.3364 10.6484V13.0458ZM37.0158 13.0458V10.6484L28.0403 14.7591V17.2212L37.0158 13.0458Z" fill="black"/>
<path d="M46.163 17.2211L37.3438 13.0457V10.6483L46.163 14.759V17.2211Z" fill="#C0BDAC"/>
<path fill-rule="evenodd" clip-rule="evenodd" d="M27.7866 6.22781C27.8777 6.18603 27.9854 6.18603 28.0765 6.22781L37.0488 10.3399C37.1565 10.3893 37.2244 10.4891 37.2244 10.5983C37.2244 10.7074 37.1565 10.8072 37.0488 10.8566L28.0765 14.9687C27.9854 15.0104 27.8777 15.0104 27.7866 14.9687L18.8142 10.8566C18.7066 10.8072 18.6387 10.7074 18.6387 10.5983C18.6387 10.4891 18.7066 10.3893 18.8142 10.3399L27.7866 6.22781ZM18.9593 10.5983L27.9316 14.7104L36.9038 10.5983L27.9316 6.48609L18.9593 10.5983Z" fill="black"/>
<path d="M46.4795 17.2211L55.455 13.0457V10.6483L46.4795 14.759V17.2211Z" fill="#C0BDAC"/>
<path d="M27.932 6.48627L18.96 10.5984L27.932 14.7106L36.9045 10.5984L27.932 6.48627Z" fill="#E0E0E0"/>
<path fill-rule="evenodd" clip-rule="evenodd" d="M37.0234 13.0458C37.0234 13.1512 37.0868 13.2482 37.1888 13.2992L46.008 17.4746C46.1073 17.5243 46.2283 17.5228 46.326 17.4707C46.4238 17.4187 46.4838 17.3237 46.4838 17.2212V14.7591C46.4838 14.65 46.416 14.5501 46.3082 14.5007L37.489 10.39C37.3896 10.3446 37.2712 10.3489 37.1762 10.4016C37.0813 10.4543 37.0234 10.5477 37.0234 10.6484V13.0458ZM37.344 13.0458V10.6484L46.1633 14.7591V17.2212L37.344 13.0458Z" fill="black"/>
<path fill-rule="evenodd" clip-rule="evenodd" d="M55.7758 13.0458C55.7758 13.1512 55.7125 13.2482 55.6105 13.2992L46.635 17.4746C46.5357 17.5243 46.4147 17.5228 46.3169 17.4707C46.2192 17.4187 46.1592 17.3237 46.1592 17.2212V14.7591C46.1592 14.65 46.2271 14.5501 46.3348 14.5007L55.3103 10.39C55.4097 10.3446 55.5281 10.3489 55.623 10.4016C55.7179 10.4543 55.7758 10.5477 55.7758 10.6484V13.0458ZM55.4553 13.0458V10.6484L46.4797 14.7591V17.2212L55.4553 13.0458Z" fill="black"/>
<path fill-rule="evenodd" clip-rule="evenodd" d="M46.227 6.22781C46.3181 6.18603 46.4258 6.18603 46.517 6.22781L55.4892 10.3399C55.5969 10.3893 55.6648 10.4891 55.6648 10.5983C55.6648 10.7074 55.5969 10.8072 55.4892 10.8566L46.517 14.9687C46.4258 15.0104 46.3181 15.0104 46.227 14.9687L37.2546 10.8566C37.1469 10.8072 37.0791 10.7074 37.0791 10.5983C37.0791 10.4891 37.1469 10.3893 37.2546 10.3399L46.227 6.22781ZM37.3996 10.5983L46.372 14.7104L55.3442 10.5983L46.372 6.48609L37.3996 10.5983Z" fill="black"/>
<path d="M46.3715 6.48627L37.3994 10.5984L46.3715 14.7106L55.344 10.5984L46.3715 6.48627Z" fill="#E0E0E0"/>
</svg>
