<svg width="42" height="46" viewBox="0 0 42 46" fill="none"
  xmlns="http://www.w3.org/2000/svg">
  <path fill-rule="evenodd" clip-rule="evenodd" d="M25.3301 1.59759L37.6699 8.60847C40.3494 10.1308 42 12.9443 42 15.989V30.0108C42 33.0555 40.3494 35.869 37.6699 37.3913L25.3301 44.4022C22.6506 45.9246 19.3494 45.9246 16.6699 44.4022L4.33013 37.3913C1.65064 35.869 0 33.0555 0 30.0108V15.989C0 12.9443 1.65064 10.1308 4.33013 8.60847L16.6699 1.59759C19.3494 0.0752189 22.6506 0.0752189 25.3301 1.59759Z" fill="#1452F0"/>
  <path d="M14.4722 24.3782L14.4726 29.4764H17.542C20.7662 29.4764 22.6811 27.1485 22.7944 24.3782L27.7989 24.3787C27.6785 30.1502 23.5717 33.7189 17.877 33.8423L17.5704 33.8456H9.58441V24.3782H14.4722ZM22.1586 12.0195C28.1259 12.0195 32.4166 15.6646 32.4166 21.6528C32.4166 21.863 32.4113 22.0702 32.4009 22.2746L27.3846 22.2747C27.4051 22.0701 27.4155 21.8626 27.4155 21.6528C27.4155 18.7516 25.7452 16.4811 22.4571 16.3636L22.187 16.3589H19.0897L19.0889 22.2743H14.2022V12.0195H22.1586Z" fill="white"/>
</svg>
