<svg version="1.1" xmlns="http://www.w3.org/2000/svg" xmlns:xlink="http://www.w3.org/1999/xlink" x="0px" y="0px"
	 width="28px" height="28px" viewBox="0 0 28 28" enable-background="new 0 0 28 28" xml:space="preserve">
<path d="M24.6,7.786c-1.988-4.725-5.644-5.413-10.053-5.417c-1.579,0-2.586-0.035-3.591,0.007c-1.848,0.08-2.96,1.077-2.962,2.918
	C7.993,7.141,9.125,8.149,10.96,8.209c1.872,0.061,3.75-0.035,5.622,0.028c1.725,0.058,2.765,1.036,2.772,2.755
	c0.009,1.744-1.035,2.726-2.781,2.785c-1.9,0.063-3.806-0.048-5.705,0.033c-1.819,0.081-2.904,1.133-2.877,2.954
	c0.025,1.805,1.129,2.808,2.93,2.868c1.899,0.063,3.803,0.017,5.703,0.015C22.731,19.638,26.968,13.414,24.6,7.786z"/>
<path d="M5.207,8.133c-1.937,0-2.908,1.004-2.929,2.826c-0.022,1.804,1.045,2.91,2.835,2.943c1.814,0.034,2.929-1.047,2.958-2.867
	C8.096,9.224,7.074,8.133,5.207,8.133z"/>
<g>
	<path d="M7.133,25.57H4.97v-5.084h0.822v4.405h1.339L7.133,25.57L7.133,25.57z"/>
	<path d="M9.948,24.911c0,0.267-0.103,0.453-0.31,0.559c-0.15,0.075-0.377,0.114-0.682,0.114c-0.07,0-0.169-0.004-0.297-0.008
		c-0.127-0.005-0.219-0.006-0.276-0.006v1.198H7.579v-4.48h0.806v0.12c0.187-0.025,0.375-0.054,0.563-0.081
		c0.236-0.034,0.423-0.053,0.563-0.053c0.293,0,0.439,0.133,0.439,0.4L9.948,24.911L9.948,24.911z M9.14,24.706v-1.797l-0.756,0.014
		v2.03h0.499C9.054,24.953,9.14,24.87,9.14,24.706z"/>
	<path d="M13.302,24.612c0,0.299-0.096,0.532-0.288,0.703c-0.192,0.169-0.451,0.255-0.777,0.255h-1.676v-5.084h1.676
		c0.326,0,0.585,0.086,0.777,0.259c0.192,0.171,0.288,0.406,0.288,0.705V24.612z M12.476,24.484v-2.921
		c0-0.282-0.161-0.425-0.482-0.425h-0.611v3.777h0.59C12.309,24.916,12.476,24.772,12.476,24.484z"/>
	<path d="M16.681,24.612c0,0.299-0.095,0.532-0.288,0.703c-0.191,0.169-0.45,0.255-0.777,0.255h-1.676v-5.084h1.676
		c0.327,0,0.586,0.086,0.777,0.259c0.193,0.171,0.288,0.406,0.288,0.705V24.612z M15.854,24.484v-2.921
		c0-0.282-0.161-0.425-0.481-0.425h-0.612v3.777h0.591C15.686,24.916,15.854,24.772,15.854,24.484z"/>
	<path d="M20.104,25.57h-0.815l-0.165-0.966h-1.03l-0.165,0.966h-0.813v-0.015l1.065-5.077h0.865L20.104,25.57z M19.008,23.952
		l-0.4-2.293l-0.404,2.293H19.008z"/>
	<path d="M23.339,25.104c0,0.311-0.167,0.466-0.499,0.466h-1.786c-0.326,0-0.488-0.155-0.488-0.466v-4.15
		c0-0.313,0.162-0.47,0.488-0.47h1.786c0.332,0,0.499,0.156,0.499,0.47V25.104z M22.517,24.916v-3.777h-1.129v3.777H22.517z"/>
</g>
</svg>
