<svg version="1.1" xmlns="http://www.w3.org/2000/svg" xmlns:xlink="http://www.w3.org/1999/xlink" x="0px" y="0px"
	 width="28px" height="28px" viewBox="0 0 28 28" enable-background="new 0 0 28 28" xml:space="preserve">
<path d="M25.803,7.033c-2.209-5.25-6.271-6.014-11.17-6.018c-1.754,0-2.873-0.039-3.99,0.008C8.59,1.112,7.354,2.22,7.352,4.265
	c-0.001,2.051,1.257,3.172,3.296,3.238c2.08,0.068,4.167-0.039,6.247,0.031c1.916,0.064,3.071,1.151,3.08,3.061
	c0.01,1.937-1.15,3.029-3.09,3.094c-2.111,0.07-4.229-0.053-6.339,0.037c-2.021,0.09-3.226,1.258-3.197,3.283
	c0.028,2.005,1.255,3.119,3.255,3.187c2.111,0.07,4.225,0.018,6.337,0.015C23.727,20.201,28.434,13.286,25.803,7.033z"/>
<path d="M4.255,7.419c-2.152,0-3.231,1.116-3.255,3.14c-0.024,2.005,1.161,3.233,3.151,3.27c2.015,0.037,3.254-1.164,3.286-3.186
	C7.466,8.631,6.33,7.419,4.255,7.419z"/>
<g>
	<path d="M6.395,26.793H3.992v-5.649h0.914v4.895h1.488V26.793z"/>
	<path d="M9.523,26.061c0,0.296-0.115,0.503-0.344,0.62c-0.167,0.085-0.419,0.127-0.758,0.127c-0.078,0-0.188-0.003-0.33-0.008
		s-0.244-0.007-0.307-0.007v1.332H6.891v-4.978h0.895v0.133c0.208-0.028,0.417-0.059,0.625-0.09
		c0.263-0.038,0.471-0.058,0.625-0.058c0.326,0,0.488,0.147,0.488,0.444V26.061z M8.625,25.833v-1.996l-0.84,0.014v2.257H8.34
		C8.53,26.107,8.625,26.016,8.625,25.833z"/>
	<path d="M13.25,25.729c0,0.332-0.107,0.592-0.32,0.781c-0.213,0.188-0.501,0.283-0.863,0.283h-1.863v-5.649h1.863
		c0.362,0,0.65,0.096,0.863,0.287s0.32,0.453,0.32,0.785V25.729z M12.332,25.587v-3.245c0-0.314-0.178-0.473-0.535-0.473h-0.68
		v4.198h0.656C12.146,26.067,12.332,25.907,12.332,25.587z"/>
	<path d="M17.004,25.729c0,0.332-0.106,0.592-0.32,0.781c-0.214,0.188-0.501,0.283-0.863,0.283h-1.863v-5.649h1.863
		c0.362,0,0.649,0.096,0.863,0.287s0.32,0.453,0.32,0.785V25.729z M16.086,25.587v-3.245c0-0.314-0.179-0.473-0.535-0.473h-0.68
		v4.198h0.656C15.899,26.067,16.086,25.907,16.086,25.587z"/>
	<path d="M20.809,26.793h-0.906l-0.184-1.072h-1.145l-0.184,1.072h-0.902v-0.015l1.184-5.642h0.961L20.809,26.793z M19.59,24.995
		l-0.445-2.548l-0.449,2.548H19.59z"/>
	<path d="M24.402,26.276c0,0.345-0.185,0.517-0.555,0.517h-1.984c-0.362,0-0.543-0.172-0.543-0.517v-4.612
		c0-0.347,0.181-0.521,0.543-0.521h1.984c0.37,0,0.555,0.174,0.555,0.521V26.276z M23.488,26.067v-4.198h-1.254v4.198H23.488z"/>
</g>
</svg>
