<svg version="1.1" xmlns="http://www.w3.org/2000/svg" xmlns:xlink="http://www.w3.org/1999/xlink" x="0px" y="0px"
	 width="28px" height="28px" viewBox="0 0 28 28" enable-background="new 0 0 28 28" xml:space="preserve">
<path d="M24.059,8.125c-1.89-4.489-5.361-5.143-9.551-5.146c-1.5,0-2.457-0.034-3.411,0.006C9.341,3.062,8.285,4.009,8.283,5.757
	c-0.001,1.755,1.074,2.712,2.817,2.77c1.778,0.058,3.563-0.034,5.341,0.026c1.639,0.055,2.628,0.984,2.633,2.618
	c0.01,1.656-0.983,2.589-2.642,2.645c-1.805,0.06-3.615-0.045-5.419,0.032c-1.728,0.077-2.759,1.076-2.733,2.806
	c0.023,1.715,1.072,2.668,2.783,2.725c1.804,0.061,3.613,0.017,5.418,0.015C22.282,19.385,26.308,13.472,24.059,8.125z"/>
<path d="M5.635,8.454c-1.84,0-2.763,0.954-2.783,2.685c-0.021,1.714,0.993,2.765,2.693,2.796c1.724,0.032,2.783-0.995,2.81-2.724
	C8.38,9.491,7.409,8.454,5.635,8.454z"/>
<g>
	<path d="M7.465,25.02H5.41V20.19h0.781v4.184h1.272L7.465,25.02L7.465,25.02z"/>
	<path d="M10.139,24.394c0,0.253-0.098,0.431-0.294,0.531c-0.143,0.071-0.358,0.108-0.648,0.108c-0.066,0-0.161-0.004-0.282-0.008
		C8.794,25.02,8.707,25.02,8.652,25.02v1.138H7.889v-4.256h0.766v0.114c0.177-0.023,0.356-0.052,0.535-0.077
		c0.225-0.032,0.402-0.051,0.535-0.051c0.278,0,0.417,0.127,0.417,0.381L10.139,24.394L10.139,24.394z M9.372,24.199v-1.707
		l-0.718,0.013v1.929h0.474C9.29,24.434,9.372,24.354,9.372,24.199z"/>
	<path d="M13.326,24.108c0,0.285-0.091,0.507-0.273,0.668c-0.183,0.162-0.429,0.243-0.739,0.243h-1.592V20.19h1.592
		c0.31,0,0.556,0.081,0.739,0.245c0.182,0.163,0.273,0.386,0.273,0.67V24.108z M12.541,23.988v-2.775
		c0-0.268-0.153-0.403-0.458-0.403h-0.581v3.588h0.561C12.382,24.398,12.541,24.261,12.541,23.988z"/>
	<path d="M16.536,24.108c0,0.285-0.091,0.507-0.274,0.668c-0.181,0.162-0.427,0.243-0.737,0.243h-1.593V20.19h1.593
		c0.311,0,0.557,0.081,0.737,0.245c0.184,0.163,0.274,0.386,0.274,0.67V24.108z M15.749,23.988v-2.775
		c0-0.268-0.151-0.403-0.456-0.403h-0.581v3.588h0.561C15.59,24.398,15.749,24.261,15.749,23.988z"/>
	<path d="M19.787,25.02h-0.773l-0.157-0.918h-0.979l-0.156,0.918h-0.772v-0.015l1.012-4.822h0.821L19.787,25.02z M18.746,23.482
		l-0.381-2.178l-0.383,2.178H18.746z"/>
	<path d="M22.86,24.576c0,0.296-0.158,0.443-0.474,0.443H20.69c-0.31,0-0.464-0.147-0.464-0.443v-3.941
		c0-0.298,0.154-0.446,0.464-0.446h1.696c0.315,0,0.474,0.148,0.474,0.446V24.576z M22.08,24.398V20.81h-1.072v3.589H22.08z"/>
</g>
</svg>
