<svg version="1.0"  xmlns="http://www.w3.org/2000/svg" xmlns:xlink="http://www.w3.org/1999/xlink" x="0px" y="0px"
	 width="612px" height="792px" viewBox="0 0 612 792" enable-background="new 0 0 612 792" xml:space="preserve">
<path d="M580.674,331.757l-42.956-7.287c-4.475-14.446-10.228-28.382-17.26-41.678l25.313-35.413
	c10.739-15.085,9.077-35.669-4.091-48.709l-38.098-38.098c-7.159-7.159-16.62-11.123-26.72-11.123
	c-7.927,0-15.47,2.429-21.861,7.032l-35.541,25.313c-13.808-7.287-28.254-13.296-43.212-17.771l-7.159-42.445
	c-3.068-18.282-18.794-31.578-37.331-31.578h-53.823c-18.537,0-34.263,13.296-37.331,31.578l-7.415,43.467
	c-14.318,4.475-28.254,10.355-41.55,17.515l-35.157-25.313c-6.393-4.603-14.063-7.032-21.989-7.032
	c-10.1,0-19.688,3.963-26.72,11.123l-38.226,38.098c-13.04,13.04-14.83,33.624-4.091,48.709l25.568,35.925
	c-7.031,13.424-12.656,27.359-17.003,41.805l-42.445,7.16C13.296,336.104,0,351.829,0,370.366v53.823
	c0,18.537,13.296,34.263,31.577,37.331l43.468,7.415c4.475,14.318,10.355,28.254,17.515,41.55l-25.186,35.029
	c-10.738,15.086-9.077,35.669,4.092,48.709l38.098,38.098c7.159,7.16,16.62,11.123,26.72,11.123c7.926,0,15.469-2.429,21.861-7.031
	l35.925-25.569c12.912,6.775,26.464,12.273,40.399,16.62l7.159,42.956c3.068,18.281,18.793,31.577,37.331,31.577h53.95
	c18.537,0,34.263-13.296,37.331-31.577l7.287-42.956c14.446-4.475,28.382-10.228,41.678-17.26l35.413,25.313
	c6.393,4.603,14.063,7.031,21.989,7.031l0,0c10.1,0,19.561-3.963,26.72-11.122l38.098-38.098
	c13.04-13.041,14.83-33.624,4.092-48.709l-25.313-35.541c7.031-13.424,12.912-27.359,17.259-41.678l42.956-7.159
	c18.282-3.068,31.578-18.794,31.578-37.331v-53.823C612.251,350.55,598.955,334.825,580.674,331.757z M577.734,422.911
	c0,1.662-1.151,3.068-2.813,3.323l-53.695,8.949c-6.776,1.151-12.146,6.137-13.808,12.657
	c-4.858,18.793-12.273,36.819-22.245,53.567c-3.452,5.881-3.196,13.168,0.768,18.793l31.577,44.49
	c0.896,1.278,0.768,3.196-0.383,4.347l-38.099,38.098c-0.895,0.896-1.789,1.023-2.429,1.023c-0.768,0-1.406-0.256-1.918-0.64
	l-44.362-31.578c-5.497-3.963-12.912-4.219-18.793-0.767c-16.748,9.972-34.774,17.387-53.567,22.245
	c-6.648,1.662-11.634,7.159-12.656,13.808l-9.077,53.694c-0.256,1.662-1.662,2.813-3.324,2.813h-53.823
	c-1.661,0-3.067-1.15-3.323-2.813l-8.949-53.694c-1.15-6.776-6.137-12.146-12.657-13.808c-18.281-4.73-35.924-12.018-52.416-21.479
	c-2.686-1.534-5.753-2.301-8.693-2.301c-3.452,0-7.032,1.022-9.973,3.196l-44.746,31.833c-0.639,0.384-1.278,0.64-1.917,0.64
	c-0.512,0-1.534-0.128-2.43-1.022l-38.098-38.099c-1.15-1.15-1.278-2.94-0.384-4.347l31.45-44.106
	c3.963-5.625,4.219-13.04,0.768-18.921c-9.973-16.62-17.644-34.646-22.501-53.439c-1.79-6.521-7.159-11.506-13.808-12.657
	l-54.078-9.204c-1.662-0.256-2.813-1.662-2.813-3.324v-53.823c0-1.662,1.151-3.068,2.813-3.324l53.312-8.949
	c6.775-1.151,12.272-6.137,13.935-12.785c4.73-18.793,12.018-36.947,21.861-53.695c3.452-5.881,3.068-13.168-0.895-18.665
	l-31.833-44.746c-0.896-1.278-0.768-3.196,0.383-4.347l38.099-38.098c0.895-0.895,1.789-1.022,2.429-1.022
	c0.767,0,1.406,0.255,1.918,0.639l44.106,31.45c5.625,3.963,13.04,4.219,18.921,0.767c16.62-9.972,34.646-17.643,53.439-22.5
	c6.521-1.79,11.506-7.16,12.657-13.808l9.204-54.079c0.256-1.662,1.662-2.813,3.324-2.813h53.822c1.662,0,3.068,1.151,3.324,2.813
	l8.949,53.312c1.15,6.776,6.137,12.273,12.785,13.936c19.305,4.858,37.714,12.401,54.846,22.5
	c5.881,3.452,13.168,3.196,18.793-0.767l44.106-31.706c0.64-0.383,1.278-0.639,1.918-0.639c0.512,0,1.534,0.128,2.429,1.023
	l38.098,38.098c1.151,1.151,1.279,2.94,0.384,4.347l-31.577,44.363c-3.964,5.497-4.22,12.912-0.768,18.793
	c9.972,16.748,17.387,34.774,22.245,53.567c1.662,6.648,7.159,11.634,13.808,12.657l53.695,9.077
	c1.661,0.256,2.813,1.662,2.813,3.324v53.823H577.734z"/>
<path d="M306.062,263.871c-72.872,0-132.064,59.192-132.064,132.064S233.19,528,306.062,528s132.064-59.192,132.064-132.064
	S378.934,263.871,306.062,263.871z M306.062,493.481c-53.822,0-97.546-43.723-97.546-97.546s43.724-97.546,97.546-97.546
	c53.823,0,97.546,43.723,97.546,97.546S359.885,493.481,306.062,493.481z"/>
</svg>
