<svg version="1.1"  xmlns="http://www.w3.org/2000/svg" xmlns:xlink="http://www.w3.org/1999/xlink" x="0px" y="0px"
	 width="24px" height="24px" viewBox="0 0 24 24" enable-background="new 0 0 24 24" xml:space="preserve">
<path d="M18.926,11.582c0.023,0.445,0.023,0.891,0,1.336l1.09,0.633c0.375,0.234,0.516,0.551,0.422,0.949
	c-0.422,1.5-1.184,2.801-2.285,3.902c-0.305,0.305-0.645,0.352-1.02,0.141l-1.09-0.633c-0.375,0.258-0.762,0.48-1.16,0.668v1.266
	c0,0.445-0.211,0.727-0.633,0.844c-1.5,0.398-3,0.398-4.5,0c-0.164-0.047-0.316-0.152-0.457-0.316
	c-0.117-0.164-0.176-0.34-0.176-0.527v-1.266c-0.398-0.188-0.785-0.41-1.16-0.668l-1.09,0.633c-0.375,0.211-0.715,0.164-1.02-0.141
	C4.746,17.301,3.984,16,3.563,14.5c-0.094-0.398,0.047-0.715,0.422-0.949l1.09-0.633c0-0.211,0-0.434,0-0.668s0-0.457,0-0.668
	l-1.09-0.633C3.609,10.715,3.469,10.398,3.563,10c0.422-1.5,1.184-2.801,2.285-3.902c0.305-0.305,0.645-0.352,1.02-0.141l1.09,0.633
	c0.375-0.258,0.762-0.48,1.16-0.668V4.656c0-0.445,0.211-0.727,0.633-0.844c1.5-0.398,3-0.398,4.5,0
	c0.164,0.047,0.305,0.152,0.422,0.316c0.141,0.164,0.211,0.34,0.211,0.527v1.266c0.398,0.188,0.785,0.41,1.16,0.668l1.09-0.633
	c0.375-0.211,0.715-0.164,1.02,0.141C19.254,7.199,20.016,8.5,20.438,10c0.094,0.398-0.047,0.715-0.422,0.949L18.926,11.582z
	 M17.063,13.797c0.141-0.727,0.211-1.242,0.211-1.547s-0.07-0.82-0.211-1.547l1.547-0.879c-0.281-0.75-0.68-1.441-1.195-2.074
	l-1.547,0.879c-0.398-0.328-0.703-0.563-0.914-0.703c-0.211-0.164-0.434-0.293-0.668-0.387c-0.234-0.117-0.598-0.27-1.09-0.457
	V5.324C12.797,5.254,12.398,5.219,12,5.219s-0.797,0.035-1.195,0.105v1.758c-0.68,0.258-1.16,0.469-1.441,0.633
	C9.105,7.855,8.695,8.16,8.133,8.629L6.586,7.75C6.07,8.383,5.672,9.074,5.391,9.824l1.547,0.879
	c-0.141,0.727-0.211,1.242-0.211,1.547s0.07,0.82,0.211,1.547l-1.547,0.879c0.281,0.75,0.68,1.441,1.195,2.074l1.547-0.879
	c0.563,0.469,0.973,0.785,1.23,0.949c0.281,0.141,0.762,0.34,1.441,0.598v1.758c0.398,0.07,0.797,0.105,1.195,0.105
	s0.797-0.035,1.195-0.105v-1.758c0.492-0.188,0.855-0.328,1.09-0.422c0.234-0.117,0.457-0.246,0.668-0.387
	c0.211-0.164,0.516-0.41,0.914-0.738l1.547,0.879c0.516-0.633,0.914-1.324,1.195-2.074L17.063,13.797z M9.609,9.859
	C10.266,9.203,11.063,8.875,12,8.875s1.734,0.328,2.391,0.984s0.984,1.453,0.984,2.391s-0.328,1.734-0.984,2.391
	S12.938,15.625,12,15.625s-1.734-0.328-2.391-0.984s-0.984-1.453-0.984-2.391S8.953,10.516,9.609,9.859z M10.805,13.445
	c0.328,0.328,0.727,0.492,1.195,0.492s0.867-0.164,1.195-0.492s0.492-0.727,0.492-1.195s-0.164-0.867-0.492-1.195
	S12.469,10.563,12,10.563s-0.867,0.164-1.195,0.492s-0.492,0.727-0.492,1.195S10.477,13.117,10.805,13.445z"/>
</svg>
