<?xml version="1.0" encoding="utf-8"?>
<!-- Generator: Adobe Illustrator 15.0.0, SVG Export Plug-In . SVG Version: 6.00 Build 0)  -->
<!DOCTYPE svg PUBLIC "-//W3C//DTD SVG 1.0//EN" "http://www.w3.org/TR/2001/REC-SVG-20010904/DTD/svg10.dtd">
<svg version="1.0" id="Слой_1" xmlns="http://www.w3.org/2000/svg" xmlns:xlink="http://www.w3.org/1999/xlink" x="0px" y="0px"
	 width="28px" height="28px" viewBox="0 0 28 28" enable-background="new 0 0 28 28" xml:space="preserve">
<path d="M25.803,7.033c-2.209-5.25-6.271-6.014-11.17-6.018c-1.754,0-2.873-0.039-3.99,0.008C8.59,1.112,7.354,2.22,7.352,4.265
	c-0.001,2.051,1.257,3.172,3.296,3.238c2.08,0.068,4.167-0.039,6.247,0.031c1.916,0.064,3.071,1.151,3.08,3.061
	c0.01,1.936-1.151,3.029-3.09,3.094c-2.111,0.07-4.229-0.053-6.339,0.037c-2.021,0.09-3.226,1.258-3.197,3.283
	c0.028,2.004,1.255,3.119,3.255,3.186c2.111,0.07,4.225,0.018,6.337,0.015C23.727,20.201,28.434,13.286,25.803,7.033z"/>
<path d="M4.255,7.419c-2.152,0-3.231,1.116-3.255,3.14c-0.024,2.005,1.161,3.233,3.151,3.27c2.015,0.037,3.254-1.164,3.286-3.186
	C7.466,8.631,6.33,7.419,4.255,7.419z"/>
<text transform="matrix(1.2688 0 0 1 2.625 27)" font-family="'MyriadPro-BoldCond'" font-size="7">stDDAO</text>
</svg>
