<?xml version="1.0" encoding="utf-8"?>
<!-- Generator: Adobe Illustrator 15.0.0, SVG Export Plug-In . SVG Version: 6.00 Build 0)  -->
<!DOCTYPE svg PUBLIC "-//W3C//DTD SVG 1.1//EN" "http://www.w3.org/Graphics/SVG/1.1/DTD/svg11.dtd">
<svg version="1.1" id="Слой_1" xmlns="http://www.w3.org/2000/svg" xmlns:xlink="http://www.w3.org/1999/xlink" x="0px" y="0px"
	 width="28px" height="28px" viewBox="0 0 28 28" enable-background="new 0 0 28 28" xml:space="preserve">
<path d="M22.795,7.929c-1.656-3.938-4.703-4.511-8.377-4.514c-1.315,0-2.155-0.029-2.992,0.006c-1.54,0.067-2.467,0.898-2.468,2.431
	c-0.001,1.539,0.942,2.379,2.472,2.429c1.56,0.051,3.125-0.029,4.685,0.023c1.438,0.048,2.304,0.863,2.311,2.296
	c0.008,1.452-0.863,2.271-2.317,2.32c-1.583,0.053-3.172-0.04-4.754,0.028c-1.516,0.067-2.42,0.943-2.398,2.462
	c0.021,1.503,0.941,2.34,2.441,2.39c1.583,0.053,3.168,0.013,4.752,0.011C21.238,17.805,24.768,12.619,22.795,7.929z"/>
<path d="M6.634,8.219c-1.614,0-2.423,0.836-2.441,2.354c-0.018,1.504,0.871,2.425,2.363,2.453c1.511,0.028,2.44-0.873,2.464-2.39
	C9.042,9.127,8.19,8.219,6.634,8.219z"/>
<g>
	<path d="M7.291,22.634C7.291,22.878,7.133,23,6.818,23H5.387c-0.315,0-0.472-0.122-0.472-0.366v-0.636h0.814v0.498h0.747v-0.469
		l-1.305-0.606C5,21.341,4.915,21.233,4.915,21.099v-0.691c0-0.244,0.16-0.366,0.479-0.366h1.416c0.315,0,0.472,0.122,0.472,0.366
		v0.595H6.476v-0.457H5.729v0.428l1.301,0.601c0.173,0.078,0.26,0.188,0.26,0.328V22.634z"/>
	<path d="M9.506,23H8.562c-0.315,0-0.472-0.122-0.472-0.366v-2.021H7.688v-0.571h0.401v-0.803h0.848v0.803h0.546v0.571H8.937v1.816
		h0.569V23z"/>
	<path d="M12.922,22.136c0,0.27-0.102,0.481-0.305,0.634C12.414,22.924,12.14,23,11.796,23h-1.773v-4.585h1.773
		c0.344,0,0.618,0.077,0.822,0.233c0.203,0.154,0.305,0.367,0.305,0.637V22.136z M12.049,22.021v-2.634
		c0-0.256-0.17-0.384-0.509-0.384h-0.647v3.407h0.625C11.872,22.411,12.049,22.281,12.049,22.021z"/>
	<path d="M16.494,22.136c0,0.27-0.102,0.481-0.305,0.634C15.986,22.924,15.712,23,15.368,23h-1.773v-4.585h1.773
		c0.344,0,0.618,0.077,0.821,0.233c0.203,0.154,0.305,0.367,0.305,0.637V22.136z M15.621,22.021v-2.634
		c0-0.256-0.17-0.384-0.51-0.384h-0.646v3.407h0.624C15.443,22.411,15.621,22.281,15.621,22.021z"/>
	<path d="M20.114,23h-0.862l-0.175-0.87h-1.089L17.813,23h-0.858v-0.012l1.126-4.579h0.915L20.114,23z M18.955,21.541l-0.424-2.068
		l-0.428,2.068H18.955z"/>
	<path d="M23.535,22.581c0,0.279-0.176,0.419-0.527,0.419h-1.889c-0.345,0-0.517-0.14-0.517-0.419v-3.744
		c0-0.281,0.172-0.422,0.517-0.422h1.889c0.352,0,0.527,0.141,0.527,0.422V22.581z M22.665,22.411v-3.407h-1.192v3.407H22.665z"/>
</g>
</svg>
