<?xml version="1.0" encoding="utf-8"?>
<!-- Generator: Adobe Illustrator 15.0.0, SVG Export Plug-In . SVG Version: 6.00 Build 0)  -->
<!DOCTYPE svg PUBLIC "-//W3C//DTD SVG 1.1//EN" "http://www.w3.org/Graphics/SVG/1.1/DTD/svg11.dtd">
<svg version="1.1" id="Слой_1" xmlns="http://www.w3.org/2000/svg" xmlns:xlink="http://www.w3.org/1999/xlink" x="0px" y="0px"
	 width="28px" height="28px" viewBox="0 0 28 28" enable-background="new 0 0 28 28" xml:space="preserve">
<path d="M25.803,7.033c-2.209-5.25-6.271-6.014-11.17-6.018c-1.754,0-2.873-0.039-3.99,0.008C8.59,1.112,7.354,2.22,7.352,4.265
	c-0.001,2.051,1.257,3.172,3.296,3.238c2.08,0.068,4.167-0.039,6.247,0.031c1.916,0.064,3.071,1.151,3.08,3.061
	c0.01,1.936-1.151,3.029-3.09,3.094c-2.111,0.07-4.229-0.053-6.339,0.037c-2.021,0.09-3.226,1.258-3.197,3.283
	c0.028,2.004,1.255,3.119,3.255,3.186c2.111,0.07,4.225,0.018,6.337,0.015C23.727,20.201,28.434,13.286,25.803,7.033z"/>
<path d="M4.255,7.419c-2.152,0-3.231,1.116-3.255,3.14c-0.024,2.005,1.161,3.233,3.151,3.27c2.015,0.037,3.254-1.164,3.286-3.186
	C7.466,8.631,6.33,7.419,4.255,7.419z"/>
<g>
	<path d="M5.734,26.572C5.734,26.857,5.551,27,5.184,27H3.514c-0.367,0-0.551-0.143-0.551-0.428v-0.741h0.95v0.581h0.872v-0.547
		l-1.522-0.707c-0.2-0.094-0.299-0.219-0.299-0.377v-0.807c0-0.284,0.187-0.427,0.56-0.427h1.652c0.367,0,0.551,0.143,0.551,0.427
		v0.694H4.785v-0.533H3.913v0.499l1.518,0.701c0.202,0.091,0.303,0.219,0.303,0.383V26.572z"/>
	<path d="M8.319,27H7.218c-0.367,0-0.551-0.143-0.551-0.428v-2.357H6.199v-0.667h0.468v-0.937h0.989v0.937h0.638v0.667H7.656v2.119
		h0.664V27z"/>
	<path d="M12.305,25.992c0,0.314-0.119,0.561-0.356,0.739C11.712,26.91,11.393,27,10.991,27H8.922v-5.35h2.069
		c0.402,0,0.721,0.091,0.958,0.272c0.237,0.181,0.356,0.429,0.356,0.743V25.992z M11.286,25.858v-3.073
		c0-0.298-0.198-0.447-0.594-0.447H9.937v3.975h0.729C11.079,26.313,11.286,26.161,11.286,25.858z"/>
	<path d="M16.473,25.992c0,0.314-0.119,0.561-0.355,0.739C15.88,26.91,15.561,27,15.158,27H13.09v-5.35h2.068
		c0.402,0,0.722,0.091,0.959,0.272c0.236,0.181,0.355,0.429,0.355,0.743V25.992z M15.453,25.858v-3.073
		c0-0.298-0.198-0.447-0.594-0.447h-0.755v3.975h0.729C15.247,26.313,15.453,26.161,15.453,25.858z"/>
	<path d="M20.696,27H19.69l-0.204-1.016h-1.271L18.012,27H17.01v-0.014l1.314-5.342h1.066L20.696,27z M19.344,25.298l-0.495-2.413
		l-0.498,2.413H19.344z"/>
	<path d="M24.687,26.512c0,0.325-0.205,0.488-0.615,0.488h-2.203c-0.402,0-0.604-0.163-0.604-0.488v-4.369
		c0-0.328,0.201-0.492,0.604-0.492h2.203c0.41,0,0.615,0.164,0.615,0.492V26.512z M23.672,26.313v-3.975H22.28v3.975H23.672z"/>
</g>
</svg>
