<svg width="48" height="48" viewBox="0 0 48 48" fill="none" xmlns="http://www.w3.org/2000/svg">
<path d="M24 48C37.2549 48 48 37.2549 48 24C48 10.7451 37.2549 0 24 0C10.7451 0 0 10.7451 0 24C0 37.2549 10.7451 48 24 48Z" fill="url(#paint0_linear_0_968)"/>
<path d="M31.6487 31.4378L25.3807 16.1773C25.0271 15.3883 24.5016 15.0034 23.8089 15.0034H23.2547C22.562 15.0034 22.0365 15.3883 21.6829 16.1773L18.955 22.8261H16.8911C16.2748 22.8309 15.7732 23.3313 15.7684 23.9567V23.9711C15.7732 24.5917 16.2748 25.0969 16.8911 25.1017H17.9995L15.3958 31.4378C15.348 31.5773 15.3193 31.7217 15.3193 31.8708C15.3193 32.2268 15.4292 32.5059 15.6251 32.7224C15.8209 32.9388 16.1028 33.0447 16.4564 33.0447C16.6905 33.0399 16.915 32.9677 17.1013 32.8282C17.302 32.6887 17.4405 32.4866 17.5504 32.2557L20.4169 25.0969H22.4043C23.0206 25.0921 23.5222 24.5917 23.527 23.9663V23.9375C23.5222 23.3168 23.0206 22.8117 22.4043 22.8069H21.3437L23.5318 17.3175L29.4941 32.2509C29.604 32.4818 29.7425 32.6838 29.9432 32.8234C30.1295 32.9629 30.3588 33.0351 30.5881 33.0399C30.9417 33.0399 31.2187 32.934 31.4194 32.7175C31.6201 32.501 31.7252 32.222 31.7252 31.866C31.7299 31.7217 31.7061 31.5725 31.6487 31.4378Z" fill="white"/>
<defs>
<linearGradient id="paint0_linear_0_968" x1="26.87" y1="-8.9125" x2="-8.84195" y2="21.1355" gradientUnits="userSpaceOnUse">
<stop stop-color="#B6509E"/>
<stop offset="1" stop-color="#2EBAC6"/>
</linearGradient>
</defs>
</svg>
