<svg width="30" height="30" viewBox="0 0 30 30" fill="none" xmlns="http://www.w3.org/2000/svg">
<path d="M15 30C23.2843 30 30 23.2843 30 15C30 6.71572 23.2843 0 15 0C6.71572 0 0 6.71572 0 15C0 23.2843 6.71572 30 15 30Z" fill="#070A0E"/>
<path fill-rule="evenodd" clip-rule="evenodd" d="M8.79827 19.3248C8.3805 19.0693 8.125 18.6142 8.125 18.1256V15.397C8.125 15.2926 8.15296 15.1919 8.2052 15.1023C8.36746 14.8226 8.72742 14.7275 9.00718 14.8916L15.1656 18.4818C15.5256 18.6925 15.7475 19.0768 15.7475 19.4945V22.3219C15.7475 22.4506 15.7121 22.5793 15.645 22.6893C15.4417 23.0213 15.009 23.1258 14.677 22.9225L8.79827 19.3248ZM17.9782 14.1437C18.3381 14.3545 18.5601 14.7387 18.5601 15.1564V20.8933C18.5601 21.063 18.4687 21.2197 18.3214 21.3018L16.9729 22.0608C16.9561 22.0701 16.9375 22.0776 16.9188 22.0832V18.8977C16.9188 18.4855 16.7025 18.1032 16.3481 17.8906L10.9394 14.6547V11.0589C10.9394 10.9545 10.9674 10.8538 11.0196 10.7642C11.1819 10.4845 11.5418 10.3894 11.8216 10.5535L17.9782 14.1437ZM20.6732 9.90632C21.035 10.1152 21.257 10.5031 21.257 10.9209V19.3006C21.257 19.4721 21.1619 19.6307 21.0108 19.7127L19.7332 20.4028V14.5689C19.7332 14.1568 19.5169 13.7763 19.1644 13.5637L13.6363 10.2476V6.83647C13.6363 6.73202 13.6643 6.63132 13.7146 6.54177C13.8769 6.26204 14.2368 6.1669 14.5166 6.32916L20.6732 9.90632Z" fill="#00D395"/>
</svg>
