<svg width="48" height="48" viewBox="0 0 48 48" fill="none" xmlns="http://www.w3.org/2000/svg">
<path d="M24 48C37.2548 48 48 37.2548 48 24C48 10.7451 37.2548 0 24 0C10.7452 0 0 10.7451 0 24C0 37.2548 10.7452 48 24 48Z" fill="url(#paint0_linear_0_939)"/>
<path fill-rule="evenodd" clip-rule="evenodd" d="M33.065 20.7142H35.2392H35.2453V22.7644H33.5291C33.5597 23.0884 33.578 23.4187 33.578 23.7552V23.805C33.578 24.1789 33.5536 24.5528 33.5108 24.9142H35.2392V26.9644H33.0223C31.7947 30.3044 28.6007 32.6101 24.405 32.6101H17.4245V26.9644H15V24.9142H17.4245V22.7644H15V20.7142H17.4245V15H24.405C28.6495 15 31.868 17.3243 33.065 20.7142ZM24.405 16.8258H19.3788V20.708H30.9031C29.8343 18.3899 27.5197 16.8258 24.405 16.8258ZM24.405 30.7655H19.3788V26.9581H30.8908C29.816 29.2388 27.5075 30.7655 24.405 30.7655ZM31.4832 24.908C31.5321 24.5653 31.5565 24.2101 31.5565 23.8486V23.7988C31.5565 23.4436 31.5321 23.0946 31.4894 22.7581H19.3788V24.908H31.4832Z" fill="white"/>
<defs>
<linearGradient id="paint0_linear_0_939" x1="-5.91999" y1="-6.79998" x2="-5.91999" y2="53.04" gradientUnits="userSpaceOnUse">
<stop stop-color="#F9A606"/>
<stop offset="1" stop-color="#FBCC5F"/>
</linearGradient>
</defs>
</svg>
