<svg width="30" height="30" viewBox="0 0 30 30" fill="none" xmlns="http://www.w3.org/2000/svg">
<path d="M15 30C23.2843 30 30 23.2843 30 15C30 6.71573 23.2843 0 15 0C6.71573 0 0 6.71573 0 15C0 23.2843 6.71573 30 15 30Z" fill="#F9FAFB"/>
<path d="M9.49393 7.63477L24.0593 17.3751L20.4571 22.5904L5.89172 12.7734L9.49393 7.63477Z" fill="url(#paint0_linear_4441_23426)"/>
<path d="M24.0593 17.3759C22.8063 19.1398 18.5777 18.4496 14.5839 15.6885C10.5119 13.0042 8.31924 9.39952 9.49387 7.63551C10.7468 5.87152 14.9755 6.56177 18.9692 9.32282C23.0412 11.9305 25.2339 15.6118 24.0593 17.3759Z" fill="url(#paint1_linear_4441_23426)"/>
<path d="M20.4571 22.515C19.2042 24.2791 14.9755 23.5888 10.9817 20.8278C6.988 18.0667 4.71706 14.5387 5.97 12.698C7.22291 10.934 11.4516 11.6243 15.4453 14.3853C19.4391 17.1463 21.6317 20.7511 20.4571 22.515Z" fill="url(#paint2_linear_4441_23426)"/>
<path d="M24.0593 17.3751L20.4571 22.5904C19.2042 24.3544 14.9755 23.5875 10.9818 20.9031C10.1987 20.3663 9.49389 19.8294 8.78912 19.2158C9.3373 19.1391 10.0421 18.8323 10.7468 18.0654C11.9998 16.7616 12.6262 16.4548 13.1744 16.5315C13.7226 16.5315 14.349 17.0683 15.367 18.3722C16.3851 19.676 17.7946 20.0595 18.656 19.3692C18.7343 19.2925 18.8126 19.2925 18.8909 19.2158C19.5957 18.6789 19.8306 18.4489 21.1619 15.9946C21.4751 15.381 22.5714 14.384 24.0593 14.8442C24.4508 15.8412 24.4508 16.6849 24.0593 17.3751Z" fill="#0E0F23"/>
<path fill-rule="evenodd" clip-rule="evenodd" d="M23.5111 17.0687C22.4148 18.6026 18.5777 17.8356 14.8972 15.3046C11.1384 12.7737 8.94571 9.55248 10.042 8.01857C11.1384 6.48466 14.9755 7.25161 18.656 9.78258C22.3365 12.3135 24.5291 15.5347 23.5111 17.0687ZM20.0655 14.7678C19.5174 15.5347 17.638 15.1513 15.7586 13.9241C13.9575 12.697 12.8611 11.0864 13.4093 10.3194C13.9575 9.55248 15.8369 9.93596 17.7163 11.1631C19.5174 12.3902 20.6137 14.0008 20.0655 14.7678Z" fill="white"/>
<path d="M9.18066 9.39947C9.18066 9.32277 9.10234 9.2461 9.02403 9.32277C8.94575 9.39947 8.86743 9.39947 8.86743 9.47618C8.94575 9.70625 9.02403 9.85965 9.02403 10.0131C9.02403 10.0897 9.10234 10.1664 9.18066 10.0897C9.25897 10.0897 9.33729 10.0131 9.25897 9.93636C9.25897 9.78295 9.25897 9.62958 9.18066 9.39947Z" fill="white"/>
<path d="M9.57216 10.6261C9.57216 10.5493 9.49385 10.4726 9.41553 10.5493C9.33722 10.6261 9.33722 10.6261 9.33722 10.7028C10.1986 12.6201 11.9997 14.6909 14.349 16.2248C14.4273 16.3015 14.5056 16.2248 14.5839 16.2248C14.6622 16.1481 14.5839 16.0714 14.5839 15.9947C12.1563 14.4608 10.4336 12.4667 9.57216 10.6261Z" fill="white"/>
<path d="M19.0476 18.1426C18.9692 18.1426 18.8909 18.1426 18.8909 18.2193C18.8909 18.296 18.8909 18.3727 18.9692 18.3727C19.2042 18.4494 19.5174 18.5261 19.7523 18.6028C19.8306 18.6028 19.909 18.6028 19.909 18.5261C19.909 18.4494 19.909 18.3727 19.8306 18.3727C19.5957 18.296 19.2825 18.2193 19.0476 18.1426Z" fill="white"/>
<path d="M20.4571 18.4492C20.3788 18.4492 20.3005 18.5259 20.3005 18.6026C20.3005 18.6793 20.3788 18.756 20.4571 18.756C21.0836 18.8327 21.7883 18.9094 22.3365 18.8327C22.4148 18.8327 22.4931 18.756 22.4931 18.6793C22.4931 18.6026 22.4148 18.5259 22.3365 18.5259C21.71 18.6026 21.0836 18.5259 20.4571 18.4492Z" fill="white"/>
<defs>
<linearGradient id="paint0_linear_4441_23426" x1="12.3476" y1="9.10663" x2="14.3807" y2="15.9441" gradientUnits="userSpaceOnUse">
<stop stop-color="#03B8FF"/>
<stop offset="1" stop-color="#FA52A0"/>
</linearGradient>
<linearGradient id="paint1_linear_4441_23426" x1="14.7263" y1="8.41035" x2="16.5285" y2="14.4713" gradientUnits="userSpaceOnUse">
<stop stop-color="#03B8FF"/>
<stop offset="1" stop-color="#FA52A0"/>
</linearGradient>
<linearGradient id="paint2_linear_4441_23426" x1="9.97626" y1="11.1748" x2="11.8093" y2="17.3395" gradientUnits="userSpaceOnUse">
<stop stop-color="#03B8FF"/>
<stop offset="1" stop-color="#FA52A0"/>
</linearGradient>
</defs>
</svg>
