<svg width="50" height="50" viewBox="0 0 50 50" fill="none" xmlns="http://www.w3.org/2000/svg">
<ellipse cx="25" cy="24.8367" rx="23.25" ry="22.7755" fill="#F9FAFB" stroke="url(#paint0_linear_0_908)" stroke-width="2.78049"/>
<path d="M22.4513 16.4165C22.1817 16.3752 22.1704 16.3704 22.2972 16.3511C22.5404 16.3141 23.1146 16.3645 23.5102 16.4575C24.4338 16.6745 25.2742 17.2304 26.1713 18.2177L26.4097 18.48L26.7507 18.4258C28.1871 18.1976 29.6483 18.379 30.8706 18.9371C31.2068 19.0906 31.7369 19.3962 31.8032 19.4747C31.8242 19.4998 31.863 19.6609 31.8891 19.8328C31.98 20.4276 31.9345 20.8835 31.7506 21.224C31.6504 21.4094 31.6447 21.4681 31.712 21.6266C31.7659 21.7531 31.9157 21.8468 32.0641 21.8467C32.3678 21.8463 32.6947 21.361 32.8463 20.6857L32.9063 20.4175L33.0256 20.5509C33.6793 21.2831 34.1929 22.2816 34.2811 22.9922L34.3041 23.1776L34.1942 23.0092C34.005 22.7193 33.8149 22.5219 33.5717 22.3627C33.133 22.0759 32.6692 21.9782 31.4408 21.9142C30.3314 21.8565 29.7036 21.7629 29.0809 21.5621C28.0217 21.2208 27.4877 20.7662 26.2293 19.1344C25.6705 18.4096 25.3251 18.0087 24.9814 17.6857C24.2007 16.9519 23.4335 16.5671 22.4513 16.4165Z" fill="#FF007A"/>
<path d="M32.0533 18.0348C32.0812 17.5491 32.1478 17.2288 32.2818 16.9363C32.3348 16.8205 32.3845 16.7257 32.3921 16.7257C32.3999 16.7257 32.3768 16.8112 32.3409 16.9156C32.2435 17.1995 32.2275 17.5878 32.2946 18.0397C32.3797 18.6129 32.4282 18.6957 33.0412 19.3149C33.3287 19.6054 33.6631 19.9717 33.7844 20.1289L34.0049 20.4149L33.7844 20.2105C33.5149 19.9606 32.8949 19.4732 32.7579 19.4035C32.6661 19.3568 32.6524 19.3576 32.5958 19.4133C32.5436 19.4647 32.5326 19.5418 32.5253 19.9066C32.5141 20.4751 32.4357 20.84 32.2464 21.2048C32.1442 21.4021 32.128 21.36 32.2206 21.1373C32.2897 20.971 32.2968 20.8979 32.2963 20.3475C32.2952 19.2418 32.1624 18.976 31.3836 18.5206C31.1862 18.4053 30.8611 18.2389 30.6611 18.1509C30.4611 18.0629 30.3022 17.9862 30.308 17.9805C30.3301 17.9588 31.0896 18.1779 31.3953 18.2942C31.85 18.4671 31.9252 18.4895 31.9803 18.4686C32.0173 18.4547 32.0353 18.3481 32.0533 18.0348Z" fill="#FF007A"/>
<path d="M22.9751 19.9263C22.4277 19.1815 22.0891 18.0395 22.1624 17.1858L22.1851 16.9217L22.3097 16.9441C22.5437 16.9863 22.9471 17.1347 23.136 17.2481C23.6543 17.5593 23.8787 17.969 24.107 19.021C24.1739 19.3291 24.2617 19.6779 24.302 19.7959C24.367 19.9859 24.6126 20.4298 24.8123 20.718C24.9562 20.9257 24.8606 21.024 24.5427 20.9957C24.0571 20.9523 23.3994 20.5037 22.9751 19.9263Z" fill="#FF007A"/>
<path d="M31.3896 25.4697C28.8317 24.4518 27.9308 23.5681 27.9308 22.0772C27.9308 21.8579 27.9384 21.6783 27.9477 21.6783C27.957 21.6783 28.056 21.7507 28.1676 21.8393C28.6862 22.2505 29.2671 22.4261 30.8751 22.658C31.8213 22.7943 32.3537 22.9046 32.845 23.0656C34.4062 23.5774 35.3721 24.616 35.6025 26.0306C35.6694 26.4417 35.6302 27.2124 35.5216 27.6187C35.4359 27.9395 35.1745 28.5179 35.1052 28.5401C35.086 28.5463 35.0671 28.4734 35.0622 28.3743C35.0359 27.8432 34.7643 27.326 34.3083 26.9386C33.7896 26.4982 33.0929 26.1475 31.3896 25.4697Z" fill="#FF007A"/>
<path d="M29.5938 25.8926C29.5616 25.7041 29.5061 25.4633 29.4702 25.3576L29.4049 25.1653L29.5262 25.2999C29.6939 25.4859 29.8264 25.7241 29.9389 26.0414C30.0246 26.2835 30.0342 26.3555 30.0336 26.7489C30.033 27.1351 30.0223 27.2161 29.943 27.434C29.8182 27.7777 29.6632 28.0213 29.4032 28.2828C28.936 28.7529 28.3352 29.0131 27.4684 29.121C27.3177 29.1397 26.8785 29.1713 26.4923 29.1912C25.5192 29.2413 24.8788 29.3446 24.3034 29.5443C24.2207 29.573 24.1468 29.5904 24.1393 29.583C24.116 29.5602 24.5078 29.3294 24.8315 29.1753C25.2877 28.958 25.742 28.8394 26.7597 28.6719C27.2625 28.5891 27.7816 28.4887 27.9135 28.4487C29.1585 28.0714 29.7986 27.0977 29.5938 25.8926Z" fill="#FF007A"/>
<path d="M30.7662 27.9509C30.4264 27.2288 30.3484 26.5317 30.5345 25.8814C30.5544 25.812 30.5865 25.755 30.6057 25.755C30.625 25.755 30.7052 25.7979 30.784 25.8503C30.9405 25.9544 31.2547 26.13 32.0915 26.581C33.1356 27.1437 33.7309 27.5793 34.1359 28.0772C34.4904 28.5133 34.7098 29.0097 34.8154 29.6152C34.8752 29.9582 34.8402 30.7835 34.7512 31.1289C34.4704 32.2179 33.818 33.0732 32.8873 33.5724C32.7509 33.6454 32.6284 33.7054 32.6153 33.7058C32.602 33.7061 32.6516 33.5812 32.7256 33.4283C33.0388 32.7814 33.0743 32.1521 32.8377 31.4518C32.6927 31.023 32.3973 30.4997 31.8006 29.6153C31.1069 28.5872 30.9369 28.3136 30.7662 27.9509Z" fill="#FF007A"/>
<path d="M21.1586 31.847C22.1078 31.0548 23.2889 30.4921 24.3647 30.3193C24.8283 30.2449 25.6008 30.2745 26.0301 30.383C26.7183 30.5571 27.3339 30.947 27.6541 31.4116C27.9669 31.8656 28.1012 32.2613 28.2409 33.1415C28.2961 33.4888 28.356 33.8375 28.3742 33.9164C28.4792 34.3727 28.6834 34.7374 28.9366 34.9205C29.3385 35.2113 30.0308 35.2294 30.7118 34.9669C30.8273 34.9223 30.9277 34.8914 30.9347 34.8985C30.9594 34.9227 30.6165 35.1495 30.3746 35.269C30.0491 35.4297 29.7903 35.4919 29.4463 35.4919C28.8226 35.4919 28.3049 35.1783 27.8727 34.5388C27.7878 34.413 27.5967 34.0361 27.4481 33.7012C26.992 32.6727 26.7666 32.3595 26.237 32.0166C25.776 31.7183 25.1815 31.6648 24.7343 31.8815C24.1469 32.1662 23.983 32.9082 24.4038 33.3785C24.571 33.5654 24.8828 33.7265 25.1378 33.7579C25.6148 33.8166 26.0248 33.4579 26.0248 32.9818C26.0248 32.6727 25.9047 32.4964 25.602 32.3613C25.1888 32.177 24.7445 32.3925 24.7466 32.7762C24.7475 32.9398 24.8197 33.0426 24.9856 33.1168C25.0921 33.1645 25.0945 33.1683 25.0076 33.1505C24.6285 33.0727 24.5397 32.6209 24.8445 32.3209C25.2106 31.9608 25.9676 32.1197 26.2274 32.6112C26.3367 32.8176 26.3493 33.2288 26.2542 33.4772C26.0411 34.0329 25.4198 34.3252 24.7895 34.1662C24.3605 34.0578 24.1857 33.9406 23.6683 33.4138C22.7694 32.4985 22.4204 32.3212 21.1243 32.1212L20.876 32.0829L21.1586 31.847Z" fill="#FF007A"/>
<path fill-rule="evenodd" clip-rule="evenodd" d="M15.9213 14.0101C18.9234 17.6116 22.0103 20.5524 22.2401 20.8663C22.4298 21.1256 22.3584 21.3586 22.0334 21.5412C21.8526 21.6428 21.481 21.7457 21.2949 21.7457C21.0845 21.7457 20.8474 21.6456 20.6748 21.4836C20.5528 21.3693 20.0603 20.6424 18.9234 18.8987C18.0535 17.5646 17.3255 16.4578 17.3056 16.4393C17.2597 16.3964 17.2605 16.3978 18.8347 19.1819C19.8232 20.9301 20.1568 21.5481 20.1568 21.6308C20.1568 21.7989 20.1104 21.8873 19.9006 22.1186C19.5508 22.5043 19.3945 22.9377 19.2816 23.8346C19.155 24.84 18.7992 25.5501 17.8132 26.7657C17.2359 27.4772 17.1415 27.6077 16.9959 27.8944C16.8124 28.2557 16.762 28.4579 16.7415 28.9139C16.7199 29.3961 16.762 29.7075 16.911 30.1686C17.0415 30.5721 17.1777 30.8387 17.5259 31.3717C17.8264 31.8317 17.9994 32.1735 17.9994 32.3073C17.9994 32.4137 18.0199 32.4138 18.4855 32.3098C19.5998 32.0612 20.5045 31.6238 21.0134 31.0877C21.3283 30.7559 21.4022 30.5728 21.4046 30.118C21.4062 29.8207 21.3956 29.7584 21.3143 29.5872C21.1819 29.3088 20.9409 29.0773 20.4097 28.7183C19.7136 28.248 19.4163 27.8694 19.3342 27.3488C19.2668 26.9215 19.345 26.62 19.7301 25.8223C20.1286 24.9967 20.2274 24.6448 20.2942 23.8126C20.3373 23.275 20.3971 23.0628 20.5534 22.8927C20.7164 22.7152 20.8631 22.655 21.2665 22.6006C21.9243 22.5118 22.343 22.3436 22.6873 22.03C22.986 21.7581 23.1109 21.496 23.1301 21.1014L23.1446 20.8024L22.9777 20.6101C22.3734 19.9136 15.5165 13.4626 15.4794 13.4626C15.4714 13.4626 15.6703 13.7089 15.9213 14.0101ZM18.3386 29.4594C18.4752 29.2203 18.4026 28.9128 18.1741 28.7627C17.9581 28.6207 17.6227 28.6875 17.6227 28.8725C17.6227 28.9289 17.6542 28.97 17.7254 29.0062C17.8452 29.0671 17.8539 29.1357 17.7596 29.2757C17.6642 29.4176 17.6719 29.5423 17.7814 29.627C17.9579 29.7636 18.2077 29.6886 18.3386 29.4594Z" fill="#FF007A"/>
<path fill-rule="evenodd" clip-rule="evenodd" d="M23.5597 22.7575C23.2509 22.8511 22.9508 23.1746 22.8579 23.5138C22.8012 23.7207 22.8334 24.0836 22.9183 24.1956C23.0555 24.3767 23.188 24.4244 23.5472 24.4219C24.2503 24.4171 24.8616 24.119 24.9327 23.7463C24.9909 23.4409 24.7224 23.0176 24.3527 22.8318C24.1619 22.7359 23.756 22.6979 23.5597 22.7575ZM24.3817 23.3927C24.4901 23.2404 24.4427 23.0758 24.2583 22.9646C23.907 22.7525 23.376 22.928 23.376 23.2559C23.376 23.4191 23.6529 23.5972 23.9067 23.5972C24.0757 23.5972 24.307 23.4976 24.3817 23.3927Z" fill="#FF007A"/>
<defs>
<linearGradient id="paint0_linear_0_908" x1="58.125" y1="25.2041" x2="29.0547" y2="-7.96312" gradientUnits="userSpaceOnUse">
<stop stop-color="#FCC0DB"/>
<stop offset="1" stop-color="#FAF0F5"/>
</linearGradient>
</defs>
</svg>
