<svg width="48" height="48" viewBox="0 0 48 48" fill="none" xmlns="http://www.w3.org/2000/svg">
<path d="M24 48C28.7467 48 33.3869 46.5924 37.3337 43.9553C41.2804 41.3181 44.3566 37.5699 46.1731 33.1844C47.9896 28.799 48.4649 23.9734 47.5388 19.3179C46.6128 14.6623 44.327 10.3859 40.9705 7.02945C37.6141 3.67299 33.3377 1.38721 28.6822 0.461164C24.0266 -0.46488 19.201 0.0103976 14.8156 1.8269C10.4302 3.6434 6.6819 6.71954 4.04473 10.6663C1.40758 14.6131 0 19.2533 0 24C0 30.3652 2.52857 36.4697 7.02944 40.9706C11.5303 45.4714 17.6348 48 24 48Z" fill="#22A079"/>
<path fill-rule="evenodd" clip-rule="evenodd" d="M26.0618 18.0547V20.7136L26.0647 20.7165C31.0029 20.9439 34.7151 21.9252 34.7151 23.0964C34.7151 24.2705 31.0029 25.2489 26.0647 25.4762V34H21.6648V25.4762C16.7209 25.246 13 24.2676 13 23.0935C13 21.9194 16.718 20.941 21.6648 20.7136V18.0547H15.5784V14H32.1482V18.0547H26.0618ZM26.0618 24.7453V24.7482V24.7511C30.4216 24.5554 33.6763 23.7957 33.6763 22.8863C33.6763 21.977 30.4245 21.2173 26.0618 21.0216V23.9913C25.9352 24.0029 25.2561 24.0604 23.8978 24.0604C22.7669 24.0604 21.9468 24.0115 21.6619 23.9913V21.0187C17.2935 21.2115 14.0302 21.9741 14.0302 22.8834C14.0302 23.7957 17.2906 24.5554 21.6619 24.7482V24.7453C21.9439 24.7597 22.741 24.7913 23.8777 24.7913C25.2993 24.7913 25.9381 24.7539 26.0618 24.7453Z" fill="#FEFEFE"/>
</svg>
