<svg width="48" height="48" viewBox="0 0 48 48" fill="none" xmlns="http://www.w3.org/2000/svg">
<path d="M24 47.5C28.6479 47.5 33.1913 46.1217 37.0559 43.5396C40.9205 40.9573 43.9325 37.2871 45.7112 32.993C47.4898 28.699 47.9552 23.9739 47.0485 19.4154C46.1417 14.8568 43.9035 10.6696 40.617 7.383C37.3305 4.09647 33.1432 1.85831 28.5846 0.951556C24.0261 0.0448048 19.301 0.510181 15.007 2.28884C10.7129 4.0675 7.0427 7.07955 4.46046 10.9441C1.87825 14.8087 0.5 19.3521 0.5 24C0.5 30.2326 2.97588 36.2099 7.383 40.617C11.7901 45.0241 17.7674 47.5 24 47.5Z" fill="white"/>
<path d="M29.3547 23.0716C30.6127 22.3906 31.3998 21.1914 31.216 19.1936C30.9684 16.4633 28.7495 15.5478 25.9485 15.2871L25.948 11.5H23.7778L23.7771 15.1875C23.2061 15.1875 22.624 15.1994 22.0446 15.2118L22.0441 11.5005L19.8759 11.5003L19.8755 15.2864C19.4056 15.2966 18.9441 15.3063 18.4935 15.3063V15.2951L15.5 15.2938L15.5004 17.7554C15.5004 17.7554 17.1031 17.7234 17.0767 17.7545C17.9554 17.7551 18.2423 18.2973 18.3249 18.7652L18.3255 23.0795V29.1397C18.2868 29.4333 18.124 29.9025 17.5096 29.9034C17.5375 29.9296 15.9309 29.9032 15.9309 29.9032L15.5004 32.6558H18.3242C18.8504 32.6564 19.3673 32.6651 19.8745 32.6694L19.8764 36.4994L22.0441 36.5L22.0436 32.7102C22.6399 32.7232 23.2156 32.7288 23.7779 32.728L23.7773 36.5H25.9475L25.9487 32.6764C29.5966 32.4538 32.1504 31.4776 32.4679 27.8379C32.7238 24.9076 31.4258 23.5996 29.3547 23.0716ZM22.0965 17.9216C23.3205 17.9216 27.1699 17.5075 27.1704 20.2239C27.1699 22.8282 23.3217 22.524 22.0965 22.524V17.9216ZM22.0955 29.9221L22.0965 24.8475C23.5671 24.847 28.1796 24.3979 28.1802 27.3836C28.1808 30.247 23.5671 29.9209 22.0955 29.9221Z" fill="#F6941A"/>
<path d="M24 42.5C34.2173 42.5 42.5 34.2173 42.5 24C42.5 13.7827 34.2173 5.5 24 5.5C13.7827 5.5 5.5 13.7827 5.5 24C5.5 34.2173 13.7827 42.5 24 42.5Z" stroke="#657786" stroke-width="2"/>
<path d="M24 46.5C36.4264 46.5 46.5 36.4264 46.5 24C46.5 11.5736 36.4264 1.5 24 1.5C11.5736 1.5 1.5 11.5736 1.5 24C1.5 36.4264 11.5736 46.5 24 46.5Z" stroke="#283947" stroke-width="2"/>
<path d="M34.3176 15.5154L40 10M38.5324 39.5L31.8382 33.0242L38.5324 39.5ZM13.7392 15.5154L8 10L13.7392 15.5154ZM9.5243 39.5L16.2185 33.0242L9.5243 39.5Z" stroke="white" stroke-width="2"/>
</svg>
